<?xml version="1.0" encoding="UTF-8" standalone="no"?>
<!-- Created with Inkscape (http://www.inkscape.org/) -->

<svg
   xmlns:dc="http://purl.org/dc/elements/1.1/"
   xmlns:cc="http://creativecommons.org/ns#"
   xmlns:rdf="http://www.w3.org/1999/02/22-rdf-syntax-ns#"
   xmlns:svg="http://www.w3.org/2000/svg"
   xmlns="http://www.w3.org/2000/svg"
   xmlns:sodipodi="http://sodipodi.sourceforge.net/DTD/sodipodi-0.dtd"
   xmlns:inkscape="http://www.inkscape.org/namespaces/inkscape"
   id="svg3004"
   version="1.1"
   inkscape:version="0.48.2 r9819"
   width="777"
   height="504"
   sodipodi:docname="bwdargin.svg">
  <metadata
     id="metadata3010">
    <rdf:RDF>
      <cc:Work
         rdf:about="">
        <dc:format>image/svg+xml</dc:format>
        <dc:type
           rdf:resource="http://purl.org/dc/dcmitype/StillImage" />
        <dc:title></dc:title>
      </cc:Work>
    </rdf:RDF>
  </metadata>
  <defs
     id="defs3008" />
  <sodipodi:namedview
     pagecolor="#ffffff"
     bordercolor="#666666"
     borderopacity="1"
     objecttolerance="10"
     gridtolerance="10"
     guidetolerance="10"
     inkscape:pageopacity="0"
     inkscape:pageshadow="2"
     inkscape:window-width="1680"
     inkscape:window-height="988"
     id="namedview3006"
     showgrid="false"
     inkscape:zoom="0.82882883"
     inkscape:cx="95.162262"
     inkscape:cy="431.58849"
     inkscape:window-x="-8"
     inkscape:window-y="-8"
     inkscape:window-maximized="1"
     inkscape:current-layer="svg3004" />
  <path
     style="fill:#000000"
     d="m 556.64814,499.50528 c -0.87705,-0.87704 -2.13705,-3.40509 -2.80003,-5.61789 -1.55388,-5.1864 -5.31786,-8.24344 -9.19499,-7.46801 -1.58314,0.31662 -5.09025,2.1993 -7.79358,4.18373 -6.05616,4.44563 -11.18461,5.13195 -11.6899,1.56442 -0.18169,-1.28285 0.32758,-3.08285 1.13172,-4 2.16589,-2.47024 2.96995,-5.88182 1.58761,-6.73615 -0.65581,-0.40531 -1.68661,-0.0667 -2.29067,0.7525 -2.68846,3.6459 -5.03409,3.83775 -9.64006,0.78847 -5.05367,-3.34567 -9.68952,-4.64107 -11.20075,-3.12984 -0.72644,0.72644 -0.0735,1.86214 2.14269,3.72695 3.24022,2.72647 7.09982,9.15165 7.09982,11.81927 0,3.08696 -2.99772,4.61127 -9.06855,4.61127 -5.31143,0 -6.31471,-0.34785 -9.67857,-3.35568 C 490.30209,492.21751 487.82477,491 483.76814,491 c -1.87535,0 -6.38703,-1.54845 -10.19784,-3.5 -7.54024,-3.86142 -12.8166,-4.45823 -17.59032,-1.98965 -1.60638,0.83069 -3.41603,2.4359 -4.02144,3.56712 -1.89562,3.542 -9.88771,7.92253 -14.45432,7.92253 -6.71479,0 -8.08775,-2.9757 -4.56183,-9.88708 1.06832,-2.09408 3.09332,-4.56152 4.5,-5.48322 1.98172,-1.29847 2.55761,-2.51004 2.55761,-5.38075 0,-3.25217 -0.7638,-4.42203 -6.25,-9.57269 -3.4375,-3.22726 -8.19341,-7.01054 -10.56869,-8.40728 -3.76346,-2.21304 -5.06796,-2.46122 -10.14669,-1.93039 -3.20539,0.33503 -8.11477,1.51051 -10.90972,2.61218 -2.79495,1.10166 -5.71992,1.75813 -6.49993,1.45881 -0.78001,-0.29932 -4.72723,0.88905 -8.77159,2.64081 -13.43194,5.81787 -19.19154,7.94321 -27.31004,10.07763 -4.42384,1.16306 -12.54334,3.43266 -18.04334,5.04357 -5.5,1.6109 -14.28729,3.3074 -19.52732,3.77 -5.24003,0.4626 -12.89003,1.90216 -17,3.19903 -9.05184,2.85623 -16.72205,2.97232 -71.47268,1.08175 -20.35,-0.7027 -50.05,-1.47214 -66,-1.70987 -35.83759,-0.53415 -64.6518,-2.64197 -83,-6.07161 -7.7,-1.43928 -20.397418,-2.9914 -28.216485,-3.44915 -7.819067,-0.45776 -14.596919,-1.0674 -15.061894,-1.35477 -0.464975,-0.28737 -5.297687,-1.23893 -10.73936,-2.11459 -16.31951,-2.62607 -23.327649,-4.5214 -26.4581479,-7.15554 -3.38094035,-2.84488 -3.08108252,-4.68639 1.0411284,-6.39386 2.1955822,-0.90944 3.1959522,-2.23673 4.0259183,-5.34156 C 10.546606,447.18672 11.646448,446 15.237116,446 18.246614,446 28,450.65206 28,452.0875 c 0,0.4233 0.707143,1.47679 1.571429,2.34107 1.214193,1.2142 3.793269,1.57143 11.345012,1.57143 10.684213,0 11.188673,-0.23638 14.51533,-6.80159 3.264885,-6.44331 7.805742,-6.1412 14.742846,0.98086 L 74.870152,455 l 8.505907,0 c 4.678249,0 8.753192,-0.40012 9.05543,-0.88915 0.302238,-0.48903 0.152747,-3.01298 -0.3322,-5.60878 -0.750748,-4.01856 -0.603457,-4.9979 0.991561,-6.59292 2.159433,-2.15943 1.874446,-2.24208 15.83276,4.59162 5.18299,2.53749 10.73001,5.71287 12.32673,7.05642 2.81698,2.37034 6.88559,3.09535 10.21047,1.81948 1.72518,-0.66202 5.53919,-7.34231 5.53919,-9.70197 0,-0.77274 0.97004,-2.63818 2.15563,-4.14543 1.80418,-2.29364 2.70121,-2.65191 5.50186,-2.19743 4.00164,0.64938 14.12633,7.53192 17.20432,11.69511 1.96484,2.6576 2.76978,2.97305 7.58634,2.97305 8.63077,0 8.55185,0.0976 8.55185,-10.57181 0,-8.29834 0.22385,-9.47762 1.97716,-10.41597 1.4492,-0.77559 2.85664,-0.69067 5.2707,0.31798 4.4744,1.86952 19.96406,13.07364 21.45513,15.51911 0.99598,1.63349 1.94239,1.87888 5.5,1.42605 6.16627,-0.78485 7.79701,-1.88526 7.79701,-5.26132 0,-4.03589 2.02174,-13.25069 3.23925,-14.76404 2.41044,-2.99616 5.94959,-1.3042 14.27982,6.82674 l 8.2747,8.07673 4.85312,-0.64107 C 261.44383,443.08618 261,443.36113 261,438.09868 c 0,-5.65254 2.65506,-14.02908 4.6948,-14.8118 2.92048,-1.1207 9.92255,2.30871 16.048,7.85984 5.95688,5.39836 6.44939,5.63901 10.50357,5.13227 2.3395,-0.29242 4.70363,-0.94657 5.25363,-1.45367 0.55,-0.5071 1.1562,-5.18279 1.3471,-10.39044 0.29881,-8.1511 0.61788,-9.61336 2.29332,-10.51003 2.40316,-1.28613 12.34631,1.33455 15.35958,4.04827 1.1,0.99065 3.88837,2.7488 6.19637,3.90699 2.30801,1.1582 4.62965,2.88004 5.15921,3.82632 0.89362,1.5968 1.34681,1.54677 6.30363,-0.69589 2.93743,-1.329 5.93439,-2.85597 6.6599,-3.39326 1.65938,-1.22887 0.79758,-8.64478 -1.97503,-16.99544 -1.07342,-3.23298 -1.81497,-7.28298 -1.64788,-9 0.39374,-4.04608 3.01594,-4.46997 11.19331,-1.80944 3.36077,1.09344 8.49471,2.23933 11.40877,2.54644 l 5.29827,0.55837 2.95173,-4.65439 C 369.67172,389.70291 371,386.85293 371,385.92953 c 0,-0.9234 -2.41515,-4.9978 -5.367,-9.05422 -2.95185,-4.05642 -5.66227,-8.32509 -6.02315,-9.48593 -1.03901,-3.34216 2.17832,-6.22145 8.87973,-7.94674 3.29427,-0.84812 8.46927,-2.77557 11.5,-4.28322 4.91082,-2.44291 5.49512,-3.06318 5.36979,-5.7003 -0.24134,-5.07808 -4.13577,-14.37996 -7.82491,-18.6899 C 375.59051,328.49815 374,325.85315 374,324.89143 374,322.25415 376.78858,320 380.05112,320 c 1.59955,0 6.44283,-0.7122 10.76285,-1.58266 7.04445,-1.41943 8.22856,-1.42641 11.48055,-0.0676 l 3.62597,1.51502 2.11195,-3.41721 c 2.53215,-4.09711 2.28381,-5.16907 -3.67046,-15.84305 -2.51302,-4.50499 -4.1723,-8.62672 -3.86395,-9.59824 0.87665,-2.76211 4.8071,-3.89818 15.98714,-4.62098 l 10.53694,-0.68123 -0.59865,-8.10201 c -1.22698,-16.60543 -4.84573,-22.05521 -16.04218,-24.15925 -3.68366,-0.69223 -7.4139,-1.02154 -8.28942,-0.7318 -0.87552,0.28975 -5.08836,1.88389 -9.36186,3.54254 -8.32287,3.23032 -7.3314,2.241 -17.93433,17.89535 -4.12062,6.08376 -6.25823,7.54208 -8.42242,5.74597 -2.10397,-1.74614 -1.6539,-5.63514 1.66589,-14.39481 1.66754,-4.4 4.35319,-14.3 5.96813,-22 1.61493,-7.7 3.85709,-17.825 4.98258,-22.5 1.12549,-4.675 2.70718,-12.69574 3.51488,-17.82388 0.8077,-5.12813 1.70864,-9.71235 2.00209,-10.18715 0.29344,-0.47481 0.98883,-4.4943 1.54529,-8.9322 1.1508,-9.17776 0.89305,-9.99121 -5.29187,-16.70106 C 378.33358,164.7231 375.86518,163 374.52052,163 c -3.83218,0 -8.67594,4.18822 -15.61768,13.50403 -12.2703,16.46673 -14.05001,17.97561 -15.75756,13.35966 -0.85374,-2.30787 2.53416,-19.02898 5.43911,-26.84494 8.8743,-23.87687 17.528,-43.96978 20.83016,-48.36529 1.30299,-1.7344 4.26433,-6.97846 6.58076,-11.65346 2.31642,-4.675 5.24881,-9.625 6.51641,-11 1.2676,-1.375 4.00167,-5.65 6.07571,-9.5 2.07404,-3.85 5.15284,-8.617302 6.84178,-10.594005 1.68893,-1.976703 5.74733,-7.07369 9.01865,-11.326638 3.27133,-4.252948 7.09633,-8.330272 8.5,-9.06072 1.40368,-0.730447 5.91871,-4.29596 10.03342,-7.923361 C 427.2857,39.800619 431.38236,37 432.62865,37 435.0259,37 443.05884,33.067469 453,27.027195 c 9.07561,-5.514367 20.67113,-11.443681 26,-13.294975 2.475,-0.859836 10.61607,-3.012646 18.09127,-4.7840215 10.12878,-2.4001865 14.28534,-2.9893281 16.31568,-2.3125488 2.45869,0.8195641 1.71832,1.2215696 -7.59127,4.1218763 -5.67363,1.767559 -12.12958,3.661003 -14.34658,4.207654 -5.82067,1.435223 -7.45822,2.974133 -6.77494,6.366864 0.47188,2.343033 0.93603,2.7154 2.6881,2.156511 9.29969,-2.966493 10.18835,-0.674036 1.30084,3.355754 -7.06141,3.201795 -7.52104,3.870763 -12.65666,18.421061 -4.90601,13.899788 -3.72237,18.653145 1.83424,7.366064 C 487.54864,32.952385 498.96781,21.102623 517.03045,11.98463 523.8406,8.5468763 524,8.5117475 524,10.448675 c 0,0.796771 -4.1625,4.150734 -9.25,7.45325 C 499.65144,27.703056 490.82054,38.017877 483.84512,54 l -3.27339,7.5 0.0482,23 c 0.0516,24.62108 1.54026,46.96894 3.83027,57.5 0.77739,3.575 2.13543,10.89217 3.01785,16.26038 0.88243,5.36821 3.18974,14.14321 5.12737,19.5 1.93762,5.35679 4.5697,12.88962 5.84907,16.73962 5.32568,16.02663 7.91651,20.04407 15.20022,23.57005 4.48657,2.17192 9.02846,6.07585 11.00627,9.46035 1.08649,1.85923 1.19164,1.86869 1.87652,0.16872 0.4816,-1.19541 0.03,-2.54123 -1.3432,-4.00295 -3.89453,-4.14553 -7.30841,-13.29792 -7.90562,-21.19446 -0.62241,-8.22967 1.25416,-21.86911 3.23502,-23.51308 1.75889,-1.45975 4.02058,-0.30618 5.41956,2.76423 0.96645,2.12114 1.38497,2.35703 2.12013,1.19499 0.50379,-0.79632 0.92288,-3.1577 0.9313,-5.24751 0.008,-2.08981 0.70534,-5.13403 1.54871,-6.76493 1.44173,-2.788 1.38665,-3.21846 -0.92143,-7.20034 -5.0995,-8.79765 -6.30664,-29.64888 -2.04678,-35.35451 1.13108,-1.51495 2.57908,-2.92865 3.21778,-3.14155 0.6387,-0.2129 3.22765,1.65005 5.75323,4.1399 4.15139,4.09266 8.00027,6.41795 8.9881,5.43013 0.20546,-0.20547 -0.10551,-2.26101 -0.69105,-4.56787 -1.3377,-5.27012 -0.63114,-9.05527 3.20261,-17.1569 6.16689,-13.03211 11.30733,-18.8443 14.77237,-16.702793 0.50704,0.31337 1.17777,2.477445 1.4905,4.809053 0.65532,4.88574 2.72442,6.80947 7.32407,6.80947 2.59508,0 4.19294,-1.00592 8.02208,-5.05021 2.62985,-2.77762 6.3731,-6.008258 8.31833,-7.1792 1.94523,-1.170942 5.43924,-3.848347 7.76445,-5.949788 C 598.05287,87.719361 600.35349,86 600.84015,86 c 0.48666,0 2.58359,-1.35 4.65985,-3 6.51035,-5.173778 7.01959,-3.780405 2.5,6.840478 -1.65,3.877443 -3,8.819762 -3,10.982932 0,3.61962 0.41905,4.22165 5.25866,7.55481 5.89332,4.05889 7.62735,4.2922 15.30719,2.05961 5.94209,-1.72741 12.56342,-1.59616 13.17317,0.26112 0.21649,0.65942 -0.80412,2.23442 -2.26801,3.5 -3.77659,3.26496 -5.47101,7.02039 -5.47101,12.12566 0,2.43317 -0.66926,6.32082 -1.48724,8.63924 -2.78734,7.90015 1.51654,10.1479 15.96115,8.33592 6.34311,-0.7957 8.32482,-0.73132 9.45072,0.30705 1.2105,1.11639 0.17853,2.55981 -6.86609,9.60352 -10.97289,10.97151 -11.5824,11.92435 -9.88845,15.45867 1.00265,2.09195 2.80801,3.27497 7.3301,4.80327 7.86985,2.65973 8.19893,4.54784 2.00763,11.51891 -3.69168,4.15664 -4.37328,5.46599 -3.43435,6.59733 2.18663,2.63474 4.80358,1.48958 8.77184,-3.83852 8.566,-11.50136 14.72935,-27.85536 19.27105,-51.13427 l 3.14417,-16.11573 -1.73317,-16 c -1.8612,-17.181845 -4.22799,-25.478655 -9.24442,-32.406288 -8.37896,-11.571278 -14.50652,-19.08871 -18.879,-23.161199 -2.69717,-2.512118 -6.87459,-7.129057 -9.28316,-10.259864 C 629.56992,30.157442 625.68859,27.21117 613.02421,21.140303 606.68589,18.101934 599.15912,14.127397 596.29804,12.307998 593.43696,10.488599 589.97182,9 588.59773,9 585.017,9 583.76278,6.2101638 585.79607,2.768083 c 2.74673,-4.6498504 9.69213,-3.57047103 29.19769,4.5375963 14.03592,5.8344467 25.29496,13.9001437 41.50624,29.7340557 6.54148,6.389201 13.4002,10.994833 24.71856,16.598517 2.59521,1.284878 5.48608,3.579404 6.42417,5.098945 0.93809,1.519542 3.19727,5.08158 5.0204,7.915642 1.82314,2.834061 6.22499,10.868006 9.7819,17.85321 4.6069,9.047206 8.61116,15.22128 13.92099,21.464401 10.26102,12.06459 16.45008,22.32291 23.63235,39.17042 3.36679,7.89752 7.63892,17.73413 9.49361,21.85913 1.8547,4.125 4.5527,11.55 5.99557,16.5 2.89162,9.92023 7.10377,22.75508 10.50177,32 4.18925,11.39765 6.06187,22.46135 7.02421,41.5 0.51431,10.175 1.411,23.9 1.99265,30.5 1.0443,11.84981 0.90799,17.55466 -1.07525,45 -1.87573,25.95756 -6.13394,43.34091 -15.39981,62.86688 -3.81762,8.04485 -6.08627,9.62367 -9.66476,6.72599 -2.09187,-1.6939 -2.09992,-1.82718 -0.49635,-8.22123 2.42828,-9.68252 2.07757,-16.00385 -1.49074,-26.86917 -2.4545,-7.47383 -4.42924,-11.24289 -9.25,-17.65489 -10.71539,-14.25232 -14.23084,-14.38875 -18.7859,-0.72902 -1.4455,4.33479 -3.42327,11.62436 -4.39504,16.19905 -0.97177,4.57468 -2.62784,9.41218 -3.68017,10.75 -2.11595,2.69 -6.23995,3.25127 -7.11594,0.96847 -0.77662,-2.02385 1.05964,-11.56821 3.95098,-20.53608 2.23136,-6.92086 2.34564,-8.23358 1.4799,-17 -0.6572,-6.65465 -1.98854,-12.30091 -4.44508,-18.85164 -5.95474,-15.87919 -11.23697,-21.32963 -21.97113,-22.67078 L 677,296.76955 l -0.15552,4.36523 c -0.0855,2.40087 -0.0639,5.40731 0.0482,6.68098 0.11203,1.27367 -1.10942,5.32367 -2.71433,9 -5.10614,11.69657 -7.35796,18.08453 -6.73198,19.09738 0.33448,0.54121 -0.25276,4.27088 -1.30498,8.28815 -1.05223,4.01728 -2.21637,12.70292 -2.58698,19.30143 -0.91942,16.36976 -2.12835,21.79019 -6.73487,30.19703 l -3.9451,7.19974 1.04685,14.80026 c 0.57576,8.14014 1.72543,17.27525 2.5548,20.30025 0.82938,3.025 2.01103,7.75 2.62589,10.5 1.45939,6.52724 4.77839,12.43208 7.34999,13.07641 1.12644,0.28223 4.01716,-0.182 6.42381,-1.03163 6.29961,-2.22398 10.5468,-1.92715 15.39414,1.07585 5.87514,3.63974 9.48677,7.16403 12.39355,12.09385 4.86201,8.24585 0.95809,11.92148 -6.73949,6.34538 -5.68397,-4.11745 -12.03377,-4.16696 -21.97869,-0.17136 -7.90283,3.17514 -8.9073,4.15042 -8.92993,8.67037 -0.0207,4.14399 -2.11726,6.86094 -4.6692,6.05098 -1.10083,-0.34939 -4.13192,-3.5967 -6.73576,-7.21624 -4.19245,-5.82784 -5.60392,-6.9828 -12.33338,-10.092 -9.56669,-4.42009 -12.85573,-4.11286 -18.8395,1.75976 -7.23218,7.09784 -9.95343,3.5909 -7.50232,-9.6684 1.39376,-7.53951 4.79242,-11.8588 11.09163,-14.09608 2.73527,-0.97148 4.97322,-2.32188 4.97322,-3.00088 0,-0.679 -2.3625,-2.75759 -5.25,-4.61908 -11.63048,-7.49786 -12.26737,-11.73167 -3.06755,-20.392 4.59871,-4.32904 5.18883,-6.70706 2.1407,-8.62649 -1.28774,-0.8109 -2.82744,-0.42969 -6.63533,1.64282 -6.50502,3.54047 -18.37843,3.90985 -22.46069,0.69874 -3.73128,-2.93503 -4.53207,-2.5172 -5.27054,2.75 -0.36627,2.6125 -2.17672,7.54684 -4.02322,10.96519 -4.80797,8.90084 -6.75788,16.23623 -5.71785,21.51002 0.71024,3.60152 1.58582,4.76162 5.55931,7.36578 6.96573,4.56525 8.03867,5.73612 14.28386,15.58751 6.76157,10.66594 8.03129,16.23152 4.50704,19.75577 -2.66822,2.66822 -3.76765,2.36962 -15.01004,-4.07665 -6.37546,-3.65562 -9.47193,-4.84975 -12.51373,-4.82582 -4.88456,0.0384 -6.82907,1.40158 -10.92192,7.65655 -3.43299,5.24652 -5.53559,6.25324 -7.9719,3.81693 z M 507,492.65499 c 0,-2.04079 -3.72189,-4.97569 -5.46275,-4.30766 -1.5515,0.59537 -2.10295,3.75364 -0.87058,4.986 1.25171,1.25172 6.33333,0.70744 6.33333,-0.67834 z m -63.04352,-4.47751 C 447.62057,485.11855 447.4375,483 443.50908,483 441.20568,483 437,487.46109 437,489.90437 c 0,2.00741 3.53434,1.13003 6.95648,-1.72689 z M 596,487.11078 c 0,-1.80495 -3.7041,-5.41169 -4.83805,-4.71087 -1.71203,1.05809 -1.41329,3.35432 0.58805,4.51999 2.18311,1.27155 4.25,1.36438 4.25,0.19088 z m -100.18045,-2.32642 c -0.17575,-1.2186 -1.89455,-3.27457 -3.81955,-4.56881 -1.925,-1.29425 -3.5,-3.10972 -3.5,-4.03437 0,-2.31086 4.9663,-2.76089 8.06464,-0.73079 2.23151,1.46215 2.64135,1.46074 4.89637,-0.0168 2.95453,-1.93588 4.12014,-5.02842 2.59012,-6.87198 -3.4378,-4.1423 -20.43445,-8.1574 -29.655,-7.00537 -8.7713,1.09591 -15.34757,-0.30768 -19.12088,-4.08099 C 452.85182,455.05182 452,453.31054 452,450.78 c 0,-4.78656 5.40255,-10.86068 12.2065,-13.72384 11.21032,-4.7174 20.05498,-10.96744 25.13492,-17.76147 6.99427,-9.35431 8.20541,-13.5926 6.96717,-24.3811 -0.69061,-6.01714 -1.82574,-10.3035 -3.65514,-13.80216 -2.17675,-4.16294 -2.64774,-6.38042 -2.62165,-12.34302 0.0207,-4.72613 0.5341,-7.93199 1.46787,-9.1656 1.30168,-1.71965 1.05668,-2.37473 -2.61808,-7 -4.54864,-5.72521 -5.7608,-6.43238 -11.19733,-6.53252 -2.09866,-0.0387 -4.76726,-0.57953 -5.93022,-1.20193 -2.04764,-1.09586 -2.05533,-1.17488 -0.24313,-2.5 C 472.68412,341.51049 476.06858,341 480.58292,341 l 7.20066,0 8.10531,8.8783 c 4.45792,4.88306 8.74062,10.38924 9.51711,12.23597 2.38821,5.67988 -1.24966,8.98394 -5.96487,5.41753 -1.06762,-0.8075 -2.27863,-1.4825 -2.69113,-1.5 -1.80605,-0.0766 -0.47808,6.82387 2.66389,13.84234 4.44492,9.92893 5.66669,21.89698 3.12716,30.63265 -1.1151,3.8358 -1.34074,6.09352 -0.67549,6.75877 1.56193,1.56193 12.69323,0.91422 21.91077,-1.27494 C 528.3862,414.89578 535.01524,414 538.50753,414 c 9.81314,0 11.69386,-3.70542 7.49197,-14.76073 -2.45403,-6.45661 -2.71294,-16.40228 -0.47533,-18.25933 2.07,-1.71795 2.62891,-0.90284 3.59951,5.24949 0.45732,2.89881 1.94435,7.7523 3.30451,10.78554 4.08355,9.10656 4.19945,12.54105 0.65755,19.48503 -3.73591,7.32434 -3.79739,8.98844 -0.5108,13.82509 5.35247,7.87687 5.76911,9.99655 4.33511,22.05495 -1.212,10.19156 -1.56099,11.28546 -5.10549,16.00274 -2.09251,2.78487 -3.80456,5.65846 -3.80456,6.38576 0,1.95409 4.63104,6.23639 6.70455,6.19966 0.9875,-0.0175 2.66896,-0.6925 3.73658,-1.5 C 559.50875,478.66069 561.33524,478 562.5,478 c 1.16476,0 2.99125,0.66069 4.05887,1.4682 1.29924,0.98269 4.44625,1.47871 9.51682,1.5 6.80632,0.0286 7.81386,-0.22172 9.92091,-2.46458 2.1471,-2.28548 2.22641,-2.71841 0.93877,-5.12439 -0.77356,-1.4454 -3.80367,-3.9809 -6.73359,-5.63444 -6.75198,-3.81059 -8.10879,-5.94319 -8.85324,-13.91531 -0.69911,-7.4866 1.3493,-16.11162 5.24761,-22.09551 2.16148,-3.31786 3.47883,-7.38681 5.87433,-18.14423 0.5808,-2.60816 0.021,-3.49232 -5.3927,-8.51754 -6.96704,-6.46708 -8.56024,-10.14591 -9.99198,-23.0722 -1.62443,-14.66594 0.47526,-41.47409 4.43293,-56.59837 2.70955,-10.35458 4.7029,-22.76904 4.87814,-30.38084 0.14077,-6.1139 -2.03984,-6.37151 -9.48561,-1.12061 -3.19745,2.2549 -6.20709,4.09982 -6.68809,4.09982 -2.05386,0 -5.46983,5.19751 -7.30855,11.1202 -1.08935,3.50889 -2.45135,10.4298 -3.02667,15.3798 -1.19453,10.27757 -3.93354,16.30551 -10.46058,23.02134 -4.42019,4.54804 -12.11181,7.27664 -17.03142,6.0419 -3.14875,-0.79028 -12.01778,-8.93125 -14.08494,-12.9287 -0.83949,-1.6234 -1.48559,-5.33624 -1.44981,-8.33144 0.0513,-4.29837 0.68569,-6.32339 3.10271,-9.90474 4.87987,-7.23059 6.03658,-10.03178 6.02829,-14.5987 -0.0115,-6.35802 -3.44663,-19.57989 -5.74221,-22.10213 C 506.8865,282.00196 506,279.38196 506,273.13694 c 0,-5.50652 0.2924,-6.30457 3.59173,-9.80288 4.8422,-5.13422 5.70288,-6.91506 4.46235,-9.23301 -0.86591,-1.61797 -1.57396,-1.76947 -4.78518,-1.02386 -2.0729,0.4813 -6.0189,0.90178 -8.7689,0.93439 -2.75,0.0326 -6.125,0.68338 -7.5,1.44616 -1.375,0.76278 -3.69722,1.14865 -5.16048,0.85747 -4.01371,-0.79868 -8.84447,1.20469 -18.06576,7.49206 -14.4484,9.85137 -24.54058,18.82204 -25.28152,22.47206 -0.35958,1.77137 -1.57961,6.03745 -2.71118,9.48017 -1.50921,4.59169 -1.897,7.61372 -1.45544,11.34204 0.33107,2.79539 0.0929,8.52861 -0.52929,12.74049 -0.62218,4.21188 -1.16838,11.92419 -1.21378,17.13847 -0.0704,8.07965 -0.33336,9.52965 -1.77998,9.8132 -1.15391,0.22617 -2.3936,-1.03189 -3.87156,-3.92892 -2.16762,-4.2489 -3.39638,-10.84225 -4.59317,-24.64645 -0.34722,-4.00492 -0.9387,-7.47165 -1.3144,-7.70385 -1.64522,-1.01679 -10.45788,8.73932 -15.34605,16.98893 -2.93416,4.95188 -7.1781,11.4388 -9.43099,14.41538 -5.25289,6.94027 -12.18471,21.02705 -16.18952,32.90017 -3.95173,11.7158 -6.74257,17.06699 -15.74855,30.19653 -10.12682,14.76355 -17.84659,21.27151 -35.1578,29.63889 -14.54846,7.03201 -26.3555,10.30693 -37.25159,10.33248 -4.03738,0.009 -6.9155,0.71203 -10.30935,2.51656 -3.6055,1.91707 -5.15144,2.26625 -6.60032,1.49084 -1.24632,-0.66701 -3.35908,-0.68489 -6.19065,-0.0524 -2.36424,0.52811 -9.02362,1.46449 -14.79862,2.08084 -5.775,0.61635 -13.65,1.75363 -17.5,2.5273 -16.03045,3.22138 -51.69512,7.63894 -64.91644,8.0408 -7.74596,0.23544 -17.45856,0.76783 -21.58356,1.18308 -4.125,0.41526 -21,0.45084 -37.5,0.0791 -32.207829,-0.72569 -78.099711,-0.0624 -80.41456,1.16234 -2.419976,1.2803 8.475306,3.09925 23.91456,3.99249 7.975,0.46139 18.325,1.56758 23,2.45819 7.555274,1.43932 16.88628,2.25954 63.5,5.58188 18.34602,1.30759 89.77845,3.19622 119.53199,3.16034 21.36344,-0.0258 27.69458,-0.35003 32.5,-1.66461 3.2824,-0.89794 10.10728,-2.01874 15.1664,-2.49066 19.00984,-1.77326 47.66386,-9.6116 65.32228,-17.86898 5.76363,-2.69518 11.60433,-5.24237 12.97933,-5.66042 5.65669,-1.71986 7.70942,-5.9749 4,-8.29147 -3.95527,-2.47011 -2.11404,-12.94782 2.65732,-15.1218 4.08382,-1.86071 14.57488,-1.33598 20.78228,1.03945 7.16443,2.74167 11.71187,1.63879 16.89407,-4.09729 4.9331,-5.46036 5.67515,-10.0648 2.27354,-14.10739 -2.51763,-2.99203 -3.29108,-6.99933 -2.00022,-10.36325 0.98098,-2.55641 3.39301,-1.86742 3.39301,0.96919 0,1.67007 1.29496,3.73795 3.75,5.98825 3.45127,3.16344 3.74426,3.85642 3.67796,8.69901 -0.11493,8.39409 -5.15224,16.1247 -13.1283,20.1476 -4.44168,2.24026 -13.12988,2.04606 -19.42214,-0.43412 -6.92372,-2.72907 -14.2438,-2.38927 -14.68177,0.68154 -0.2315,1.62317 0.45734,2.39876 2.88077,3.24357 3.06822,1.06959 3.16634,1.27615 2.67535,5.63218 l -0.50968,4.52188 6.13928,-0.62899 c 4.49147,-0.46017 7.14866,-0.20724 9.9,0.94235 4.83833,2.02158 14.04386,9.11414 19.46853,14.99985 3.50631,3.80432 4.25,5.30327 4.25,8.56617 0,4.98109 0.99988,5.3481 15,5.50589 9.43569,0.10635 11.0428,0.40245 15.85505,2.92117 5.09088,2.66456 10.86868,4.3124 15.9645,4.5531 1.84878,0.0873 2.2547,-0.34011 2,-2.10607 z M 562.5,484.9863 c 0,-2.1435 -2.90567,-1.8339 -3.32712,0.35451 -0.25736,1.3364 0.14991,1.74367 1.48631,1.48631 1.01244,-0.19498 1.84081,-1.02335 1.84081,-1.84082 z m 95.5,-6.51768 c 0,-1.51309 -2.63652,-3.16543 -3.56667,-2.23529 -0.26422,0.26423 -0.19667,1.21982 0.15012,2.12354 0.79561,2.07333 3.41655,2.15905 3.41655,0.11175 z m -123.77844,-9.0956 c -4.27165,-3.77603 -4.56435,-3.86983 -6.14241,-1.96839 -0.90823,1.09435 -0.7152,2.14363 0.87381,4.75 1.12176,1.83996 2.04125,4.22115 2.0433,5.29154 0.003,1.65682 0.51986,1.44592 3.4753,-1.41861 l 3.47157,-3.36477 -3.72157,-3.28977 z m 118.75179,1.41155 c 1.53878,-0.96098 2.70864,-0.93974 5.58811,0.10149 C 664.02617,472.86213 674,469.94948 674,466.37756 674,465.39971 672.61377,465 669.22251,465 c -8.17484,0 -10.49633,-2.90041 -16.00794,-20 -3.34649,-10.38237 -4.7275,-17.86203 -5.76986,-31.25 -0.42418,-5.44811 -1.10833,-8.74859 -1.81299,-8.74626 -0.62244,0.002 -2.6283,0.91617 -4.45746,2.03136 -1.82916,1.1152 -4.97916,2.3773 -7,2.80468 -3.31501,0.70108 -3.64799,1.06467 -3.40558,3.71864 0.92799,10.15981 0.9259,10.1677 -4.04141,15.21084 -2.6,2.63969 -4.72727,5.31225 -4.72727,5.93903 0,0.62678 1.4131,2.18632 3.14023,3.46565 6.73801,4.99105 15.03065,13.70021 14.69661,15.43478 -0.24132,1.25307 -2.2758,2.22655 -7.12286,3.40821 -3.73177,0.90977 -7.21488,2.08397 -7.74024,2.60933 -1.70738,1.70738 1.7083,5.06728 5.81975,5.72473 2.12707,0.34013 6.7562,1.95465 10.28695,3.58783 7.16957,3.31632 9.06669,3.61075 11.89291,1.84575 z M 694,471.09546 c 0,-1.42296 -11.04841,-7.29086 -12.60383,-6.69399 -2.5525,0.97949 -1.57956,3.59573 1.35383,3.64045 1.5125,0.0231 4.325,0.90419 6.25,1.95808 3.95826,2.16706 5,2.39529 5,1.09546 z m -147.58517,-5.97944 c 1.97184,-2.68618 3.58302,-5.27368 3.58039,-5.75 -0.003,-0.47631 -1.52175,-2.51757 -3.37582,-4.53613 -3.95613,-4.30708 -9.4304,-5.57509 -18.47352,-4.27904 -3.10523,0.44504 -9.3328,0.71165 -13.83904,0.59247 -7.74348,-0.20481 -8.36858,-0.06 -11.38928,2.63904 l -3.19613,2.85573 3.69645,2.18096 c 4.42441,2.61046 4.44789,2.6124 6.72057,0.55565 1.67237,-1.51347 2.14278,-1.40273 6.83704,1.60957 4.83692,3.10385 5.14204,3.16874 7.53281,1.60225 1.37043,-0.89794 2.4917,-2.49569 2.4917,-3.55056 0,-2.94095 1.75015,-3.36626 3.72336,-0.90482 3.03283,3.78326 10.74214,11.73735 11.44147,11.80477 0.36566,0.0353 2.27816,-2.1337 4.25,-4.81989 z M 622,466.5 c 0,-0.825 -0.45,-1.5 -1,-1.5 -0.55,0 -1,0.675 -1,1.5 0,0.825 0.45,1.5 1,1.5 0.55,0 1,-0.675 1,-1.5 z M 18.103799,453.7038 c -1.283486,-1.28349 -2.585054,-0.2915 -1.634836,1.24598 0.368078,0.59556 1.127349,0.79971 1.687268,0.45366 0.683003,-0.42212 0.665748,-0.98146 -0.05243,-1.69964 z M 65,454.60699 c 0,-1.69554 -2.704424,-2.89426 -3.526992,-1.56332 C 61.147935,453.56965 61.160081,454.45 61.5,455 c 0.924049,1.49514 3.5,1.20589 3.5,-0.39301 z m 41.47368,0.4356 c 0.77211,-1.2493 -5.23283,-4.34899 -7.063937,-3.64633 -2.110539,0.80989 -1.70101,2.55111 0.840257,3.57258 3.01463,1.21173 5.50215,1.24121 6.22368,0.0738 z M 153,454.11869 C 153,453.0216 146.51024,448 145.0924,448 144.17428,448 141,453.00322 141,454.45034 c 0,0.30231 2.7,0.54966 6,0.54966 3.3,0 6,-0.39659 6,-0.88131 z M 469.54883,453.921 c 0.82229,-1.33051 -1.48358,-9.921 -2.66301,-9.921 -0.46985,0 -2.32387,1.32435 -4.12004,2.943 -2.69453,2.42821 -3.07431,3.2551 -2.17114,4.72725 1.62676,2.65161 7.75449,4.19189 8.95419,2.25075 z M 196.25,452.34529 C 197.2125,452.08126 198,451.4575 198,450.95918 198,449.81147 187.95577,443 186.26335,443 c -1.71881,0 -1.73127,9.64537 -0.0134,10.33546 1.22173,0.49077 6.51048,-0.0329 10,-0.99017 z m 291.57166,-0.83737 c -0.84883,-1.86297 -0.84361,-4.55588 0.0207,-10.66743 0.63588,-4.49644 1.01553,-8.31597 0.84365,-8.48784 -0.17187,-0.17187 -3.20903,1.59097 -6.74924,3.91743 L 475.5,440.5 l 0.0368,5.14065 c 0.0496,6.92677 1.43158,8.35935 8.0642,8.35935 5.34573,0 5.35391,-0.005 4.22065,-2.49208 z m 13.15179,-3.184 c 5.09281,-2.64224 5.28049,-2.66209 14.84229,-1.56945 6.49969,0.74272 12.61532,0.79983 18.5976,0.17367 8.10195,-0.84802 9.22228,-0.75067 12.30716,1.06946 1.8666,1.10132 3.5931,2.0024 3.83666,2.0024 0.24356,0 0.44284,-1.58945 0.44284,-3.53212 0,-4.27247 -2.31877,-10.11384 -5.25574,-13.2401 -1.31477,-1.39951 -2.37242,-4.1446 -2.70227,-7.01365 L 542.5,421.5 536,421.5712 c -3.575,0.0392 -11.45,0.64869 -17.5,1.35453 -6.05,0.70585 -13.12622,1.03386 -15.72494,0.72891 l -4.72494,-0.55444 -1.096,4.19991 c -0.6028,2.30996 -1.73907,6.4191 -2.52506,9.13142 -1.49197,5.1486 -1.90912,12.7551 -0.76239,13.90183 1.04977,1.04977 1.81705,0.83877 7.30678,-2.00941 z M 234.98844,447.0283 c 1.23444,-0.78047 0.90232,-1.54579 -1.94616,-4.48468 C 231.15324,440.59463 229.02698,439 228.31725,439 227.15655,439 224,444.93848 224,447.12212 c 0,1.17497 9.10462,1.09723 10.98844,-0.0938 z M 277,441.02224 c 1.375,-0.36637 2.5,-1.09579 2.5,-1.62093 0,-1.69984 -8.44246,-8.63737 -9.85256,-8.09626 -1.53863,0.59043 -4.03126,9.2649 -3.09677,10.77693 0.56996,0.92222 4.51118,0.52251 10.44933,-1.05974 z m 40.75,-8.56638 C 320.82274,431.17589 322.21455,429 319.96055,429 c -0.5717,0 -3.37819,-1.575 -6.23665,-3.5 -5.67969,-3.82493 -8.18311,-4.35165 -9.11691,-1.91821 -0.85419,2.22598 -0.75689,9.93498 0.13668,10.82855 0.96481,0.96481 8.83862,-0.2184 13.00633,-1.95448 z m 293.03334,-17.98584 c 5.46566,-2.18693 13.68599,-12.29068 17.25647,-21.21023 3.53396,-8.82833 5.5474,-19.38809 4.16704,-21.85465 -0.85912,-1.53516 -1.60302,-1.153 -6.34009,3.2571 -12.71149,11.83411 -21.97912,16.19521 -31.91517,15.01843 -6.41627,-0.75991 -14.06285,-4.14358 -17.52111,-7.75324 C 574.88791,380.31734 573.20891,379 572.69937,379 c -1.20751,0 0.0542,8.44642 1.94191,13 2.24921,5.42561 14.68656,17.28801 23.81549,22.71456 2.81828,1.67529 7.77416,1.57697 12.32657,-0.24454 z M 354.35921,410.91501 C 359.95556,405.98891 360.50757,403 355.821,403 c -1.74845,0 -4.66214,-0.53631 -6.47487,-1.1918 -1.81272,-0.65549 -3.50919,-0.97847 -3.76993,-0.71773 -0.26074,0.26074 -0.0725,2.25955 0.4183,4.4418 0.49081,2.18225 1.1514,5.20523 1.46799,6.71773 0.31659,1.5125 0.95369,2.75 1.41577,2.75 0.46209,0 2.92852,-1.83824 5.48095,-4.08499 z m 283.7033,-9.5172 c 8.87449,-4.66341 15.2738,-11.46707 17.42342,-18.52436 0.9002,-2.9554 2.07194,-11.67345 2.60386,-19.37345 0.53192,-7.7 1.35672,-16.96009 1.83288,-20.57798 0.47617,-3.61789 0.63333,-7.79383 0.34926,-9.27986 -0.36607,-1.91496 1.09869,-6.26101 5.0292,-14.92202 6.05646,-13.34564 5.87768,-11.71256 2.87584,-26.26946 -1.02351,-4.96333 -6.73947,-17.85333 -9.7566,-22.00201 -1.2207,-1.67851 -3.8236,-3.54377 -5.78539,-4.14586 -3.24949,-0.9973 -3.63247,-0.9039 -4.31101,1.05133 -1.2202,3.516 -0.54271,15.81339 1.13743,20.64586 0.98282,2.82684 3.1086,5.83734 5.71734,8.0968 2.88319,2.49716 3.95886,4.10223 3.51842,5.25 -1.63367,4.25728 -10.06375,-0.36755 -13.95294,-7.65473 -1.98957,-3.72785 -2.22854,-5.57629 -2.15802,-16.69207 0.0436,-6.875 0.43496,-15.92859 0.86965,-20.11909 0.67573,-6.514 0.48242,-8.50892 -1.33274,-13.75398 C 640.9554,239.75274 640,234.93924 640,232.43028 c 0,-2.50897 -0.44679,-5.3966 -0.99287,-6.41696 -1.83154,-3.42226 -2.95643,-12.66089 -5.90694,-48.51332 -0.9882,-12.00787 -4.87882,-27.18886 -9.09802,-35.5 -0.97724,-1.925 -2.23862,-6.4792 -2.80306,-10.12043 -1.41989,-9.15971 -4.35093,-14.55283 -8.98688,-16.53584 -2.04172,-0.87334 -4.53499,-2.00879 -5.54059,-2.52322 -1.14141,-0.58391 -2.26857,-0.5777 -3,0.0165 -0.6444,0.52353 -5.31914,1.53331 -10.38831,2.24396 -8.9427,1.25369 -9.36518,1.22254 -14.21265,-1.0479 C 573.11763,111.24485 571,112.20389 571,117.68819 c 0,4.66942 -1.11105,6.51278 -9.57203,15.88106 -7.09481,7.85562 -7.30509,8.23951 -7.94252,14.5 -0.36012,3.53691 -1.07255,7.80533 -1.58318,9.48537 -1.07221,3.52774 -8.22285,10.88648 -11.93129,12.27852 -2.07776,0.77994 -2.83647,2.17317 -4.25199,7.80809 -3.17498,12.63893 -3.20716,14.55059 -0.31668,18.80996 2.27515,3.35261 2.59769,4.8473 2.59769,12.03788 0,7.46053 -0.27219,8.61166 -2.9818,12.61045 -2.04227,3.01393 -2.98754,5.64054 -3,8.33603 -0.0119,2.56436 -0.72816,4.69126 -2.05591,6.10459 -1.78165,1.89648 -1.91439,2.71788 -1.05637,6.53665 1.76516,7.85615 7.71523,9.24813 6.55847,1.53431 -0.84637,-5.64398 1.48505,-8.3886 11.98969,-14.11468 4.5893,-2.50163 8.79643,-5.09922 9.34916,-5.77242 0.55274,-0.6732 0.9624,-5.274 0.91036,-10.224 -0.16992,-16.16189 4.83526,-29.95315 13.05526,-35.97242 7.44824,-5.45414 17.97891,-8.09654 23.62791,-5.92882 3.25115,1.24759 11.33978,13.8121 13.45554,20.90124 5.13033,17.18988 6.4471,22.41083 7.18794,28.5 3.99824,32.86249 4.87706,42.11747 4.36803,46 -0.33575,2.56087 0.0955,8.10268 1.00087,12.86047 0.87497,4.59826 1.59085,10.55406 1.59085,13.23512 0,2.68663 1.29725,8.80883 2.89013,13.63953 1.58956,4.82068 3.19819,10.6423 3.57472,12.93693 0.37654,2.29464 2.03461,6.30079 3.6846,8.90256 4.17277,6.57978 6.46367,12.89179 7.23671,19.93901 0.7357,6.70676 -1.7186,35.5729 -3.40904,40.09525 -1.24023,3.31795 -4.67949,11.06641 -6.04876,13.62756 -2.06694,3.86608 -0.51428,3.706 8.13415,-0.83862 z m -28.46709,-19.02009 c 3.10182,-1.44681 8.27836,-5.5341 13.23066,-10.44665 9.90433,-9.82483 10.9646,-12.4758 9.4128,-23.53461 -1.27735,-9.1029 -2.30744,-10.56623 -5.47564,-7.77857 -2.42282,2.1318 -8.71458,6.48281 -14.62772,10.11566 -7.93906,4.87751 -23.58458,2.02449 -32.64804,-5.95349 -2.44905,-2.15573 -4.91061,-3.63658 -5.47015,-3.29077 C 573.4578,341.8351 573,344.75143 573,347.97003 c 0,3.53805 -0.83123,8.02414 -2.10219,11.34536 l -2.10219,5.49336 4.3116,5.83639 c 6.5381,8.85029 10.53583,11.97918 17.89278,14.00404 5.66736,1.55984 12.05406,0.77969 18.59542,-2.27146 z m -231.4636,-11.3549 c 1.23593,-3.83745 1.96603,-7.2583 1.62245,-7.60189 -0.96001,-0.96 -10.82895,2.61011 -11.41147,4.12812 -0.55521,1.44686 5.17205,10.45095 6.64757,10.45095 0.49186,0 1.90551,-3.13973 3.14145,-6.97718 z m 380.32845,0.0415 c 1.10234,-1.78363 5.53973,-23.38443 5.53949,-26.96577 L 763.99952,340.5 754.99976,340.31815 746,340.13631 l 0,3.44699 c 0,1.94856 1.27024,5.72262 2.92205,8.68185 1.60713,2.87917 3.90096,8.49735 5.0974,12.48485 2.06772,6.89129 3.14103,8.41739 4.44082,6.31429 z M 609.14526,345.15091 c 5.48065,-3.42049 14.48308,-9.99817 15.71442,-11.48183 0.88621,-1.06782 0.9813,-2.09841 0.30958,-3.35516 -0.53324,-0.99765 -1.73951,-5.69334 -2.68061,-10.43485 -2.30718,-11.62428 -2.4599,-11.79694 -7.1305,-8.06139 -2.12198,1.69716 -6.41603,4.2519 -9.54233,5.6772 -7.24974,3.30522 -13.98357,2.74266 -19.48286,-1.62763 -5.99758,-4.76628 -6.05313,-4.69224 -9.38955,12.51651 -1.13151,5.83613 -1.11768,5.90308 1.70792,8.2703 6.5538,5.4906 11.52874,8.4377 16.53492,9.79508 5.85899,1.58862 9.94183,1.2089 13.95901,-1.29823 z m -79.95516,0.81305 c 3.7504,-1.04164 7.99123,-5.44258 11.09523,-11.51413 0.85764,-1.67759 2.01913,-7.07759 2.58109,-12 1.93959,-16.9897 6.19971,-25.55352 15.13358,-30.42199 3.025,-1.64846 6.625,-3.88417 8,-4.96823 2.17256,-1.71287 2.33628,-2.23701 1.25,-4.00175 -2.75648,-4.47812 -0.2072,-12.94681 5.66497,-18.81899 3.82412,-3.82411 3.32411,-5.23887 -1.85154,-5.23887 -4.26842,0 -6.23211,-1.63314 -5.47338,-4.55204 0.35405,-1.36205 -0.18491,-2.24874 -1.79185,-2.94796 -3.45712,-1.50427 -3.2981,-4.65619 0.63802,-12.64597 C 568.15894,231.29741 568.95638,227 566.63587,227 c -2.06445,0 -22.96396,10.8768 -24.32584,12.65998 -0.75235,0.98509 -0.97772,3.35025 -0.61281,6.43129 C 542.4786,252.68886 541.23436,254 534.19201,254 528.17582,254 524,251.46952 524,247.82381 c 0,-1.00516 -1.36072,-5.76422 -3.02381,-10.57569 -2.85279,-8.25332 -5.6358,-12.16986 -8.68745,-12.22588 -1.10778,-0.0203 -4.28874,8.6002 -4.28874,11.62267 0,0.70506 2.7,4.16823 6,7.69594 5.72475,6.11977 6,6.65004 6,11.55893 0,4.57845 -0.42604,5.61037 -3.86955,9.37256 -2.12825,2.32521 -4.16471,5.18072 -4.52547,6.34558 -0.8303,2.681 0.83783,7.15387 3.87194,10.38208 2.74007,2.91535 4.28783,8.16399 5.92862,20.10464 1.39305,10.13775 1.02266,11.91138 -4.34149,20.78935 -5.59616,9.26197 -5.45157,11.75863 1.08101,18.66587 5.58059,5.90066 5.61184,5.91312 11.04504,4.4041 z M 517.25,335.33772 c -1.59329,-0.64291 -1.62773,-5.55999 -0.05,-7.13772 3.34136,-3.34136 7.98234,0.90964 5.92432,5.42649 -1.02299,2.24521 -3.07184,2.84205 -5.87432,1.71123 z M 531,333 c -2.49115,-2.49115 -2.55405,-5.18862 -0.17126,-7.34501 C 534.31765,322.49757 538,324.28122 538,329.12857 538,331.79598 535.77823,335 533.92857,335 533.41786,335 532.1,334.1 531,333 z m -1.39522,-21.58753 c -1.21767,-3.17322 -0.5278,-17.19523 1.3701,-27.84803 1.64589,-9.23824 2.52147,-11.7678 5.64119,-16.2975 3.61782,-5.25291 6.94992,-8.03429 8.16701,-6.81719 0.33648,0.33648 -0.10972,1.83544 -0.99157,3.33102 -4.47562,7.59049 -5.19675,9.14733 -4.54085,9.80323 0.39221,0.39221 2.43295,-0.47874 4.53498,-1.93545 7.76874,-5.38374 12.45542,-1.94474 8.6998,6.38374 -2.81522,6.24303 -4.59686,7.33922 -10.87531,6.69123 -6.2795,-0.6481 -6.15151,-0.8285 -7.64577,10.77648 -1.82104,14.14288 -2.24528,16.55558 -2.99222,17.01722 -0.41941,0.25921 -1.03472,-0.23793 -1.36736,-1.10475 z M 546.73246,282.75 c 1.70364,-2.17889 3.3269,-8.09064 2.45968,-8.95786 -0.9107,-0.9107 -9.19214,4.6367 -9.19214,6.15743 0,0.95164 3.90181,4.05043 5.10006,4.05043 0.36028,0 1.09486,-0.5625 1.6324,-1.25 z m -150.21657,52.12388 c 4.92756,-6.47932 7.15129,-10.54003 6.26002,-11.4313 -0.61817,-0.61818 -14.85187,2.52369 -16.04671,3.54206 -0.9551,0.81404 3.42499,15.0381 4.43797,14.41204 0.40275,-0.24891 2.80967,-3.18417 5.34872,-6.5228 z m 343.49706,-2.92786 c 0.66684,-2.77968 0.96039,-5.30601 0.65234,-5.61406 -0.43826,-0.43826 -6.2512,2.50605 -8.59239,4.35213 -0.54454,0.42938 5.06103,6.31591 6.01445,6.31591 0.39224,0 1.25876,-2.27429 1.9256,-5.05398 z m 22.29113,1.12847 c 3.9386,-1.49745 4.54516,-9.07449 0.72644,-9.07449 -0.96553,0 -3.46922,-1.36189 -5.56376,-3.02642 -2.09454,-1.66453 -4.23607,-2.88381 -4.75897,-2.70951 -1.46686,0.48895 -5.99424,12.54708 -5.34561,14.23739 0.66578,1.73497 10.85769,2.12584 14.9419,0.57303 z m -43.44004,-9.26731 c 1.28959,-5.32748 1.43139,-14.99877 0.47949,-32.70214 l -0.65647,-12.20895 -3.46565,-1.44805 c -5.41564,-2.2628 -7.82474,-1.83466 -10.67052,1.89635 -2.24069,2.9377 -2.55089,4.31219 -2.55089,11.303 0,7.15404 0.28751,8.35762 2.84405,11.90561 1.56423,2.17085 4.32377,8.222 6.13232,13.447 4.86864,14.06574 5.02099,14.41064 5.92483,13.41284 0.45478,-0.50206 1.33806,-3.02461 1.96284,-5.60566 z m 12.10795,0.20711 c 4.84817,-2.47335 5.32846,-3.23808 3.52778,-5.61697 C 732.3129,315.50823 732.59448,305.71521 735,301 c 1.1,-2.15618 2,-4.32711 2,-4.8243 0,-0.49719 -2.13539,-1.75262 -4.74532,-2.78984 -2.60992,-1.03722 -5.03175,-2.01814 -5.38185,-2.17981 -0.35009,-0.16167 -0.41358,4.56333 -0.14109,10.5 0.27503,5.99201 0.006,13.40348 -0.60561,16.65974 -0.99846,5.31933 -0.85512,7.63421 0.47273,7.63421 0.26445,0 2.23236,-0.89357 4.37313,-1.98571 z m 14.92923,-6.57145 c 3.9923,-6.76644 2.24698,-9.65619 -4.20409,-6.96076 -4.26186,1.78072 -4.4219,2.32681 -1.69713,5.79079 1.1,1.39842 2,3.03411 2,3.63486 0,2.18099 1.84958,1.01238 3.90122,-2.46489 z m 20.6352,-5.88802 c 1.08321,-8.66975 0.20676,-21.47376 -1.54575,-22.58175 -2.46523,-1.55859 -6.8437,-1.12321 -7.8132,0.77693 -2.06629,4.04973 -4.20983,14.84813 -3.45799,17.42014 0.78089,2.67138 8.73796,9.80186 10.95856,9.82015 0.67864,0.006 1.46646,-2.29865 1.85838,-5.43547 z M 605.5,311.1066 c 2.75,-1.58105 5.85724,-3.82682 6.90499,-4.99061 1.04774,-1.1638 2.48368,-2.11599 3.19098,-2.11599 2.29177,0 2.54847,-1.88703 1.0541,-7.74863 -0.80646,-3.16325 -1.78373,-7.88887 -2.17172,-10.50137 -0.38799,-2.6125 -1.05841,-4.75 -1.48982,-4.75 -0.43141,0 -2.74282,1.11958 -5.13646,2.48795 -5.16301,2.95155 -13.81706,3.38917 -19.56104,0.98918 -5.13247,-2.14448 -5.63412,-1.07138 -6.68224,14.29419 l -0.496,7.27133 5.0334,3.97867 c 6.47687,5.11968 11.81583,5.41906 19.35381,1.08528 z M 421.2226,303.25 c 2.55608,-2.6125 4.95045,-5.9875 5.32082,-7.5 0.63689,-2.6009 0.48533,-2.75 -2.79544,-2.75 -6.06214,0 -12.90891,1.25579 -13.36788,2.45186 -0.53514,1.39455 4.26017,12.54814 5.39488,12.54814 0.44011,0 2.89154,-2.1375 5.44762,-4.75 z m 325.74933,-1.62518 c 0.44824,-1.16865 2.04583,-5.17942 3.5502,-8.91282 1.50436,-3.7334 2.5051,-7.0181 2.22386,-7.29935 -1.07016,-1.07016 -10.47606,9.2649 -11.04184,12.1326 -0.32063,1.62511 -0.88663,4.18676 -1.2578,5.69256 -0.66653,2.70406 -0.63549,2.72409 2.51788,1.62482 1.756,-0.61215 3.55946,-2.06916 4.0077,-3.23781 z M 697,288.61366 c 0,-3.87366 -0.57151,-4.99507 -4.88974,-9.59455 -6.05354,-6.44784 -7.90872,-6.35593 -9.70692,0.48089 -1.84767,7.02497 -1.83935,7.05279 2.4995,8.35274 2.14656,0.64313 4.95906,2.04939 6.25,3.12502 4.05976,3.38267 5.84716,2.66 5.84716,-2.3641 z m 45.61217,-2.95649 c 2.07422,-1.78416 2.69237,-3.17649 2.59228,-5.83888 -0.17255,-4.58978 -1.83215,-8.83154 -3.4297,-8.76597 -2.4607,0.10101 -15.19223,5.70013 -15.57547,6.84984 -0.21308,0.63924 1.26004,3.17276 3.2736,5.63005 3.02022,3.68578 4.25215,4.46779 7.03831,4.46779 2.1003,0 4.40714,-0.88584 6.10098,-2.34283 z m -66.38548,-4.22233 c 1.08963,-3.82647 3.72386,-25.70583 3.19747,-26.55754 -0.22309,-0.36098 -1.87229,-0.88412 -3.66489,-1.16254 -1.7926,-0.27843 -4.15927,-0.80095 -5.25927,-1.16117 -1.7579,-0.57567 -2.22746,0.14015 -3.87909,5.91346 -1.81176,6.33311 -1.8153,6.73795 -0.0987,11.30068 5.76418,15.32155 7.92434,17.91856 9.70451,11.66711 z m 88.41741,-9.66798 c -0.34913,-4.91852 -0.88843,-9.35318 -1.19846,-9.85481 C 763.13562,261.41042 760.57503,261 757.75543,261 c -3.88722,0 -5.68603,0.52563 -7.44098,2.17431 -2.85757,2.68455 -2.86264,5.04424 -0.0232,10.81395 1.97628,4.01583 2.78772,4.66176 7.70878,6.13649 3.025,0.90653 5.90025,1.40897 6.38944,1.11654 0.49015,-0.29299 0.60447,-4.54626 0.25466,-9.47443 z m -158.99317,6.32167 c 6.6901,-3.16497 6.70607,-3.19367 7.8417,-14.08853 0.68701,-6.59103 -0.29735,-8.71006 -3.29971,-7.10325 -5.15895,2.76099 -15.85928,0.46369 -18.19846,-3.9071 C 591.40881,251.89534 590.51662,251 590.01182,251 c -1.3334,0 -2.99978,6.75416 -3.00624,12.1849 -0.003,2.5767 -0.45872,5.87674 -1.01255,7.33343 -1.76958,4.65434 4.22244,10.06508 11.50697,10.39069 1.1,0.0492 4.76792,-1.22005 8.15093,-2.82049 z m -27.34056,-4.44365 c 0.447,-3.22031 0.55825,-6.10959 0.24723,-6.42061 -1.01401,-1.01402 -5.47222,3.987 -6.59968,7.40323 -1.36174,4.12611 -0.55304,5.57789 2.88534,5.17981 2.42485,-0.28074 2.72467,-0.81363 3.46711,-6.16243 z M 439.47766,269.75 c 1.11428,-11.86894 2.03182,-14.05793 9.13862,-21.80208 6.22078,-6.77867 6.53131,-7.34852 5.88629,-10.80205 -0.88402,-4.73321 -1.09189,-4.86831 -3.75651,-2.44144 -3.47,3.16037 -6.26168,4.29557 -10.56369,4.29557 -4.76244,0 -5.14887,0.92608 -5.16872,12.38666 -0.0155,8.9425 1.97938,25.61334 3.06493,25.61334 0.39514,0 1.02473,-3.2625 1.39908,-7.25 z m 262.51329,3.81121 c 1.18575,-1.63928 1.42105,-4.72232 1.14945,-15.06121 -0.18783,-7.15 -0.45215,-13.11839 -0.58738,-13.26309 -0.13523,-0.1447 -3.69823,1.31019 -7.91777,3.2331 -8.32261,3.79273 -8.91275,4.56433 -10.09338,13.19675 l -0.70665,5.16676 4.33239,1.95324 c 2.38281,1.07428 5.63875,3.34574 7.23541,5.04768 3.02258,3.22188 4.09186,3.17753 6.58793,-0.27323 z m -250.65044,-3.93366 c 7.09687,-6.0143 21.22424,-15.46482 26.65949,-17.8339 l 4.5,-1.96143 -4,-3.47277 c -3.7243,-3.23341 -4.3651,-3.43904 -9.29716,-2.98349 -8.63098,0.7972 -18.35739,7.85507 -21.5314,15.62404 -1.59321,3.89967 -3.18639,15 -2.15289,15 0.36436,0 2.98424,-1.9676 5.82196,-4.37245 z M 719,258.01905 l 0,-12.98095 -2.75,-0.58826 c -1.5125,-0.32354 -3.78367,-1.00711 -5.04705,-1.51905 -1.26338,-0.51193 -2.50088,-0.93079 -2.75,-0.93079 -0.90799,0 -0.41275,18.60459 0.59149,22.22052 C 710.18353,268.32198 713.2165,271 716.72251,271 718.97553,271 719,270.86054 719,258.01905 z m 18.06237,8.0729 c 2.4407,-1.15207 5.78522,-3.17449 7.43227,-4.49425 2.85067,-2.28421 2.9126,-2.49022 1.28814,-4.28523 -0.93858,-1.03712 -2.4047,-3.5567 -3.25806,-5.59907 -1.40944,-3.37326 -1.90437,-3.7134 -5.40328,-3.7134 -2.33753,0 -4.85127,-0.78624 -6.39431,-2 C 726.27885,242.50098 726,243.12808 726,256.63084 l 0,12.63084 3.31237,-0.53752 c 1.82181,-0.29564 5.30931,-1.48013 7.75,-2.63221 z m -75.51235,-11.71439 c 0.90491,-8.44993 -0.12146,-19.67218 -2.19974,-24.05183 C 657.66084,226.7655 650.50381,220 648.42699,220 c -2.8202,0 -3.2169,7.77153 -0.94435,18.50037 0.81545,3.8498 1.49045,10.18713 1.5,14.08296 0.01,3.89584 0.21127,7.27084 0.44826,7.5 0.237,0.22917 2.90055,0.53504 5.91901,0.67972 l 5.48811,0.26305 0.712,-6.64854 z m -279.73276,1.54439 c 3.59951,-3.00849 10.36126,-5.94838 18.9731,-8.24916 4.80907,-1.28482 5.53046,-2.68483 5.02543,-9.753 L 405.5,233.5 398.62139,233 c -5.89357,-0.4284 -7.11079,-0.85023 -8.5,-2.94572 -2.91077,-4.39061 -4.93785,-6.56561 -5.55061,-5.95565 -0.75607,0.75262 -2.9314,9.39771 -4.50445,17.90137 -0.66132,3.575 -1.62179,8.38677 -2.13437,10.69282 -1.65799,7.45915 -1.41618,7.66012 3.8853,3.22913 z M 763.25,254.30272 c 1.12683,-0.63216 0.90222,-15.14978 -0.26823,-17.33678 -0.83389,-1.55815 -1.47929,-1.72728 -3.5651,-0.93426 -1.40078,0.53258 -4.11554,0.96832 -6.0328,0.96832 -3.03255,0 -3.67438,0.45103 -4.9349,3.46788 -1.78473,4.27146 -1.85847,8.58984 -0.18574,10.87743 2.49489,3.41196 11.13677,5.11731 14.98677,2.95741 z m -334.90286,-1.76497 c 0.30861,-0.80423 0.86852,-7.67287 1.24424,-15.26364 0.75991,-15.35263 0.78434,-15.28136 -5.85954,-17.09455 -3.65658,-0.99792 -3.8084,-0.93437 -5.12684,2.14603 -0.74727,1.74593 -2.7641,4.4961 -4.48184,6.1115 -2.79464,2.62815 -3.12316,3.54169 -3.12316,8.6849 0,7.32699 1.31389,10.87801 4.02491,10.87801 2.52248,0 7.14902,2.29973 8.92037,4.43406 1.63214,1.96661 3.66858,2.01458 4.40186,0.10369 z m 154.59865,0.0276 c 0.65487,-0.78907 1.04747,-2.92657 0.87244,-4.75 L 583.5,244.5 l -3.90839,3.58921 c -2.30179,2.1138 -3.61349,4.06637 -3.19098,4.75 1.00247,1.62203 5.11449,1.44996 6.54516,-0.27389 z m 26.10387,-1.091 c 2.56319,-1.32548 2.94935,-2.08 2.94279,-5.75 -0.007,-4.1406 -1.56602,-15.56208 -2.58294,-18.92765 -0.47564,-1.57418 -0.75709,-1.55551 -3.71208,0.24626 -2.05201,1.25119 -5.00651,1.95093 -8.24743,1.95333 -2.7775,0.002 -5.59,0.54374 -6.25,1.20374 -1.77853,1.77853 -1.63323,16.8 0.1625,16.8 0.74937,0 3.06124,1.35 5.1375,3 4.22953,3.36121 8.03606,3.80839 12.54966,1.47432 z M 510,248.72784 c 0,-0.69968 -1.45266,-3.03448 -3.22813,-5.18843 -3.60466,-4.37308 -4.00335,-8.06935 -1.74168,-16.14723 1.28264,-4.58114 1.27741,-4.60069 -1.89182,-7.08099 -4.04772,-3.16782 -5.54951,-6.08456 -10.69336,-20.76847 -2.30379,-6.57651 -4.6036,-12.09558 -5.11069,-12.26461 -0.50709,-0.16903 -1.47056,1.20976 -2.14106,3.06397 -0.67049,1.85422 -2.11327,4.18054 -3.20617,5.1696 -2.48138,2.24563 -2.50749,4.54189 -0.10546,9.27816 3.12805,6.16782 4.40798,14.16932 3.88887,24.3112 -0.26459,5.16943 -0.80378,10.1459 -1.19819,11.05883 -0.50786,1.17552 0.351,2.63451 2.94335,5 3.23418,2.95115 4.49452,3.40649 10.8224,3.90997 3.93907,0.31341 8.17444,0.65091 9.41194,0.75 1.24864,0.1 2.25,-0.38601 2.25,-1.092 z m 169.47165,-2.69651 c 1.93549,-2.1387 4.95717,-13.52847 3.99995,-15.07728 C 683.1473,230.42932 682.26805,230 681.51771,230 c -2.24605,0 -7.25141,-4.80284 -7.96392,-7.6417 -0.9169,-3.65323 -2.04153,-2.02504 -3.941,5.70559 -2.43228,9.89912 -2.15888,14.52551 1.03323,17.48386 3.196,2.96195 6.42273,3.13875 8.82563,0.48358 z m 16.65502,-4.11704 c 1.99466,-1.006 3.8515,-2.41503 4.12631,-3.13117 0.66185,-1.72475 -0.34013,-11.9457 -1.13402,-11.56779 -0.34043,0.16206 -2.29335,0.94056 -4.33982,1.73001 -3.05017,1.17664 -3.99648,2.24428 -5.25,5.92315 -0.84103,2.46828 -1.52914,5.78795 -1.52914,7.37704 0,2.53572 0.27531,2.80412 2.25,2.19355 1.2375,-0.38264 3.882,-1.51879 5.87667,-2.52479 z m 45.47363,0.3204 C 742.89724,241.3687 745,237.57464 745,236.10054 745,234.82666 739.09359,228 737.99143,228 736.90103,228 732,236.48385 732,238.37137 c 0,3.14772 6.65887,5.82736 9.6003,3.86332 z m -276.99907,-4.39848 c 0.41689,-0.67455 -0.48596,-2.20048 -2.1477,-3.62984 -3.15385,-2.71283 -4.06233,-1.93783 -2.51112,2.14215 1.04658,2.75272 3.41046,3.50757 4.65882,1.48769 z m 252.81698,0.5568 c 1.82364,-0.6998 2.20016,-9.47147 0.66074,-15.39301 -0.50044,-1.925 -1.20875,-6.5375 -1.57402,-10.25 l -0.66412,-6.75 -4.30518,0 -4.30518,0 -0.69582,5.75 c -0.3827,3.1625 -1.38078,6.81722 -2.21795,8.12159 -1.40492,2.18898 -1.3244,2.77541 1.04569,7.61576 1.4123,2.88429 4.17418,6.65457 6.13752,8.37841 3.95594,3.47336 3.7178,3.37167 5.91832,2.52725 z M 478.75338,226.5 c 0.30813,-12.16057 -0.49144,-14.03467 -4.34405,-10.18205 -3.28846,3.28845 -6.21422,4.12877 -11.45654,3.29049 C 459.26551,219.01882 459,219.13863 459,221.39203 c 0,1.74792 1.65971,3.75522 6.00434,7.26181 3.30238,2.66539 6.26584,5.6593 6.58547,6.65314 0.4302,1.33765 1.40307,1.72725 3.74566,1.5 L 478.5,236.5 l 0.25338,-10 z m 97.96081,6.3557 c 1.50841,-2.27937 4.08539,-4.70891 5.72661,-5.399 l 2.98404,-1.25469 -0.23929,-8.851 c -0.30531,-11.29344 -1.13118,-18.66497 -2.29082,-20.44737 -0.71123,-1.09317 -1.91797,-0.25223 -5.4557,3.80189 -4.35866,4.99489 -4.55797,5.49976 -4.92523,12.4765 -0.22658,4.30445 0.0568,7.80063 0.69469,8.56919 0.67562,0.81407 0.85935,3.89957 0.49266,8.2735 -0.32163,3.83641 -0.39235,6.97528 -0.15716,6.97528 0.2352,0 1.66179,-1.86494 3.1702,-4.1443 z m -127.73127,-4.93831 c 5.63164,-4.74867 6.63131,-7.51156 4.53402,-12.53109 -2.03638,-4.87374 -1.91274,-7.51812 0.59261,-12.67489 l 2.10955,-4.34209 -3.12179,-4.43466 c -1.71699,-2.43906 -3.46526,-6.45389 -3.88504,-8.92184 -0.7192,-4.22826 -0.98016,-4.52244 -4.52254,-5.09823 -2.09122,-0.33992 -4.02876,-0.17505 -4.36659,0.37157 -0.33401,0.54045 -0.74765,5.08465 -0.91919,10.09823 -0.30402,8.8854 -1.83056,27.31649 -3.05336,36.86561 l -0.60825,4.75 4.19942,0 c 3.4562,0 5.05633,-0.72255 9.04116,-4.08261 z M 729.80029,228.75 c 1.07988,-1.7875 2.5151,-4.825 3.18938,-6.75 1.10639,-3.15861 0.9716,-3.97784 -1.38185,-8.39894 C 730.17352,210.90664 729,207.73414 729,206.55106 729,203.88603 727.21076,202 724.68251,202 c -1.78508,0 -1.86929,0.53515 -1.21947,7.75 0.3839,4.2625 1.10077,9.55 1.59304,11.75 0.49226,2.2 0.90603,5.4625 0.91947,7.25 0.0135,1.7875 0.43775,3.25 0.94289,3.25 0.50514,0 1.80198,-1.4625 2.88185,-3.25 z m 29.23799,0.42009 2.25985,-1.82992 -2.16243,-7.11933 c -1.18934,-3.91563 -2.63973,-7.41431 -3.22309,-7.77485 -0.58337,-0.36054 -2.04546,0.26964 -3.24909,1.4004 -1.20364,1.13075 -4.32033,2.99896 -6.92598,4.15156 -5.12576,2.26737 -5.60416,3.31976 -3.12083,6.86522 3.96878,5.66623 12.10699,7.80065 16.42157,4.30692 z m -350.0765,-4.14964 c 4.11953,-2.2047 4.38381,-3.68594 1.64005,-9.19195 -3.11422,-6.24942 -3.21493,-8.73338 -0.65569,-16.17195 1.07038,-3.1111 1.85788,-5.68061 1.75,-5.71003 -0.10788,-0.0294 -4.15465,-0.14191 -8.99283,-0.25 -8.59148,-0.19194 -8.86234,-0.12654 -11.61088,2.80348 -2.30155,2.4535 -3.00872,4.44964 -3.88198,10.95776 l -1.06778,7.95776 3.34613,3.70377 c 1.84037,2.03707 3.83229,4.61215 4.42647,5.7224 0.59419,1.11025 2.09383,2.17629 3.33254,2.36898 2.57106,0.39995 9.18481,-0.83665 11.71397,-2.19022 z m 257.32363,-6.6987 1.90715,-6.05217 -3.60357,-4.72095 c -1.98197,-2.59651 -4.10372,-6.70717 -4.715,-9.13478 -1.24425,-4.94137 -1.46628,-5.0928 -4.04525,-2.75886 -2.42107,2.19103 -2.31038,3.1693 0.67126,5.93259 3.28776,3.047 3.15516,5.41055 -0.5,8.91242 -1.65,1.5808 -3,3.33703 -3,3.90274 0,1.5046 9.27277,10.673 10.41083,10.29365 0.53209,-0.17736 1.82565,-3.04595 2.87458,-6.37464 z m 19.44875,5.42825 c 1.88332,-2.40453 3.81862,-17.30384 3.35109,-25.79911 C 689.01559,196.685 684.04854,194 681.7764,194 c -0.31988,0 -1.54658,3.2625 -2.72601,7.25 -1.17943,3.9875 -3.02326,9.35842 -4.0974,11.93538 -2.31961,5.56492 -2.34571,5.81462 -0.60798,5.81462 0.73976,0 2.20226,0.95311 3.25,2.11803 1.68171,1.86978 4.69871,3.63336 6.53255,3.81858 0.34515,0.0349 1.06812,-0.49911 1.6066,-1.18661 z M 605.75,222.43396 c 2.20285,-0.448 3.25,-1.23485 3.25,-2.44212 C 609,218.0817 605.14486,205 604.58194,205 c -0.18573,0 -1.95319,0.675 -3.9277,1.5 -1.9745,0.825 -5.17946,1.5 -7.12212,1.5 -3.18922,0 -3.53105,0.26697 -3.52111,2.75 0.0263,6.56755 1.26268,10.32949 3.87633,11.79436 2.49199,1.39669 4.54607,1.37758 11.86266,-0.1104 z m 92.39327,-3.49775 c 1.51828,-1.88992 3.1972,-5.40601 3.73093,-7.81354 0.92473,-4.17119 0.82327,-4.51173 -2.15437,-7.23139 -3.75625,-3.4308 -4.33268,-2.81443 -5.18451,5.54358 -0.33997,3.33583 -0.87313,7.80635 -1.18479,9.93449 -0.69271,4.73009 0.74951,4.59975 4.79274,-0.43314 z m -129.50963,0.57612 c 0.92355,-2.40672 -1.0499,-8.96881 -2.79851,-9.30556 -1.19565,-0.23027 -1.76314,0.8275 -2.27492,4.24028 -0.37503,2.50089 -0.40294,4.9984 -0.062,5.55001 0.94529,1.5295 4.49095,1.19483 5.13546,-0.48473 z m -37.19034,-2.73484 c 1.0131,-1.4464 1.5567,-4.44514 1.5567,-8.58743 0,-6.36019 -0.004,-6.3691 -5.46176,-11.95893 -4.56087,-4.67129 -5.57279,-5.30467 -6.13487,-3.83992 -2.13253,5.5573 3.92953,26.60879 7.66237,26.60879 0.45147,0 1.52137,-1.00013 2.37756,-2.22251 z m 117.41876,-5.43843 C 651.68793,208.77555 654,206.30969 654,205.85939 c 0,-0.45031 -1.6875,-1.68 -3.75,-2.73266 -2.0625,-1.05265 -4.60724,-2.8618 -5.65499,-4.02032 C 641.49397,195.67749 640,196.43091 640,201.42371 640,206.43864 641.99003,216 643.0338,216 c 0.37967,0 3.00239,-2.09742 5.82826,-4.66094 z m -217.40109,1.28504 c 1.32528,-6.45841 2.73318,-22.71442 2.16373,-24.98326 C 433.18076,185.87203 432.292,185 430.9332,185 c -1.11578,0 -3.08764,-1.14262 -4.38191,-2.53916 l -2.35321,-2.53916 -3.57783,4.36626 c -4.75562,5.80361 -6.31219,9.81476 -7.16422,18.46154 -1.03382,10.49158 -0.0129,11.71341 9.92142,11.87462 7.04256,0.11428 7.68213,-0.044 8.08352,-2 z m 41.88799,-3.03393 c 1.49327,-2.27901 1.50846,-3.03998 0.1638,-8.20249 -0.81519,-3.12973 -1.70001,-5.90826 -1.96625,-6.17451 -0.26625,-0.26625 -1.6902,0.36437 -3.16434,1.40137 -1.47413,1.037 -3.85067,2.58241 -5.2812,3.43424 -1.43054,0.85183 -3.41552,3.19338 -4.41108,5.20343 -2.31706,4.67819 -1.11926,7.19285 4.03952,8.48058 4.46523,1.11461 8.10528,-0.30536 10.61955,-4.14262 z m 271.25351,2.12439 c 1.15635,-0.66801 3.58315,-2.47711 5.39287,-4.02022 l 3.29041,-2.80566 -2.56699,-9.79485 C 747.87749,184.25243 745.52661,178 744.29157,178 c -1.90958,0 -3.75677,5.01136 -4.34109,11.77724 -0.52907,6.12608 -1.06916,7.73719 -3.41423,10.18492 -3.14284,3.28042 -3.01339,5.89024 0.5146,10.37536 2.27664,2.89427 4.28976,3.26137 7.55162,1.37704 z m -68.71399,-12.75785 c 2.95046,-6.0238 3.20899,-7.13358 2,-8.58523 -0.90734,-1.08945 -1.56174,-5.33751 -1.88848,-12.25903 -0.66309,-14.04667 -2.10897,-14.55341 -7.87131,-2.75866 -3.57968,7.32712 -4.12869,9.33693 -4.12869,15.11428 0,3.66488 0.50623,7.64633 1.12496,8.84767 1.58744,3.08221 5.02516,6.69581 6.29935,6.62165 0.59163,-0.0344 2.6005,-3.17575 4.46417,-6.98068 z m -101.59071,-1.98642 c 3.94853,-5.26135 4.74506,-7.01782 4.5,-9.92329 -0.66404,-7.87289 -8.05486,-2.75759 -11.24658,7.78392 -1.84892,6.10659 -1.57051,9.66331 0.69934,8.93385 0.68721,-0.22085 3.40847,-3.27836 6.04724,-6.79448 z m 24.38651,3.9405 c 4.70274,-2.27656 5.0366,-3.24971 2.8831,-8.40377 -1.42625,-3.4135 -1.45627,-3.42633 -6.75,-2.88342 -7.96606,0.81698 -7.77748,0.6584 -6.61248,5.56062 0.88878,3.73988 3.80402,7.81578 5.59016,7.81578 0.31542,0 2.51557,-0.94014 4.88922,-2.08921 z m 115.89418,-1.25465 c 0.28362,-0.73912 -0.78283,-2.73391 -2.3699,-4.43287 -1.58707,-1.69896 -3.69242,-5.25673 -4.67856,-7.90615 -2.52953,-6.79596 -3.10587,-7.06881 -5.40638,-2.55943 -1.12114,2.1976 -2.73259,4.26202 -3.58102,4.58759 -2.51674,0.96576 -1.77037,4.27081 1.82548,8.08352 3.01701,3.19896 3.90626,3.5712 8.53138,3.5712 3.40048,0 5.33937,-0.45881 5.679,-1.34386 z m 18.34896,-4.291 c 1.36483,-1.73509 2.07258,-4.099 2.07258,-6.92245 0,-4.03108 -0.21402,-4.35822 -3.57739,-5.46823 -4.15436,-1.37106 -6.78388,-5.14347 -8.46245,-12.14053 -1.1195,-4.66659 -2.19487,-5.88121 -3.43313,-3.87767 -0.32505,0.52595 0.0984,3.92887 0.94098,7.56205 0.8426,3.63319 1.53199,8.79858 1.53199,11.47864 0,6.23977 1.38295,9.82053 4.23546,10.96651 3.5655,1.43242 4.47974,1.21406 6.69196,-1.59832 z m -268.1254,-2.76276 c 5.93448,-3.06884 6.4806,-4.53415 5.2968,-14.21203 -0.58957,-4.81991 -1.49424,-9.18577 -2.01037,-9.7019 -1.45766,-1.45766 -12.77562,8.99741 -13.46355,12.43706 -0.68955,3.44776 -0.0785,5.36099 3.07387,9.62449 2.70792,3.66238 3.303,3.81756 7.10325,1.85238 z M 688.98469,177.25 c -0.0181,-15.10885 -0.69435,-16.97456 -4.70383,-12.97834 -2.55579,2.54732 -2.80899,3.49412 -3.12841,11.6979 -0.32945,8.46133 -0.21463,9.05917 2.20454,11.47834 5.0275,5.0275 5.64464,3.90919 5.6277,-10.1979 z m 25.99177,8 c -0.0372,-5.92947 -5.82482,-26.14547 -8.23079,-28.75 -1.29891,-1.4061 0.0661,13.78525 1.80329,20.06835 3.22562,11.66677 6.47378,16.05406 6.4275,8.68165 z m -303.47303,-0.38715 c 4.38497,-3.85006 7.74619,-9.54706 10.07084,-17.06927 1.51893,-4.91503 1.59508,-6.45897 0.5491,-11.13289 -0.66791,-2.98457 -2.53139,-7.16668 -4.14106,-9.29359 -4.4227,-5.84385 -3.45929,-7.26705 2.19421,-3.24141 3.817,2.71795 6.15198,1.62297 10.50549,-4.9265 4.25443,-6.4004 5.05395,-9.74777 5.66868,-23.73314 l 0.52896,-12.03396 7.56018,-11.212161 C 451.92917,81.112807 452,80.946836 452,74.503883 452,70.897956 451.56084,68 451.0144,68 c -0.54209,0 -2.36884,2.5875 -4.05945,5.75 -4.56052,8.531023 -14.0919,25.181421 -17.03013,29.75 -3.0943,4.81125 -19.4412,37.96324 -20.46322,41.5 -0.39733,1.375 -1.95886,4.975 -3.47005,8 C 402.82966,159.32925 396,179.91845 396,183.12127 c 0,3.04729 2.80565,4.80988 7.7152,4.84693 3.32504,0.0251 4.96976,-0.63071 7.78823,-3.10535 z m 71.04814,0.0872 3.14679,-3.04998 -1.89198,-5.70002 c -1.04059,-3.135 -2.15889,-7.61251 -2.4851,-9.95001 -0.62071,-4.44767 -1.42373,-4.92195 -5.62746,-3.32369 l -2.43638,0.92631 1.83863,5.32369 c 1.01125,2.92803 1.85333,6.95494 1.87128,8.94869 0.0397,4.40606 1.0698,9.875 1.86004,9.875 0.31757,0 1.99345,-1.37249 3.72418,-3.04999 z M 592.75,184.36971 c 2.67346,-0.71645 2.84833,-2.05108 0.59501,-4.54097 -1.83184,-2.02416 -8.77826,-2.5112 -11.34501,-0.79543 -1.2671,0.84701 -1.06436,1.38806 1.30576,3.48469 2.81704,2.49197 5.2645,2.97184 9.44424,1.85171 z m 107.82571,-9.27589 c 2.00725,-6.90193 1.41885,-13.5437 -1.45439,-16.41694 -3.47535,-3.47536 -4.07289,-1.24895 -3.41302,12.71671 0.67267,14.23639 1.59854,14.94024 4.86741,3.70023 z m -58.14715,5.56819 c 0.81327,-1.30475 0.71,-1.94935 -0.42856,-2.67516 -2.51677,-1.6044 -4,-1.10511 -4,1.34648 0,4.02544 2.31475,4.71992 4.42856,1.32868 z M 434.41115,177.75 c 0.24709,-1.2375 1.66202,-8.325 3.1443,-15.75 1.48227,-7.425 3.0853,-15.3 3.56228,-17.5 0.47698,-2.2 1.58188,-8.05 2.45534,-13 1.77034,-10.03268 9.28489,-28.13513 15.0387,-36.227989 C 460.4753,92.650922 462,89.991689 462,89.362604 c 0,-1.202212 -6.43405,-2.360648 -7.84993,-1.413363 -0.45276,0.302917 -2.10941,2.800759 -3.68144,5.550759 -1.57203,2.75 -3.93731,6.447181 -5.25616,8.21596 -2.64944,3.55329 -4.12435,11.94088 -4.17975,23.76969 -0.0394,8.41665 -3.11514,15.35776 -9.89766,22.33645 l -4.37648,4.50307 1.29032,5.37868 c 1.11914,4.66508 1.06882,6.0814 -0.37929,10.67531 C 426.75133,171.2923 426,174.62637 426,175.7882 c 0,4.19685 7.61046,5.9719 8.41115,1.9618 z m 302.58436,-2.24459 c 2.22648,-2.68274 0.97853,-13.55662 -2.66892,-23.25541 -1.78319,-4.74163 -2.16509,-4.90199 -6.42623,-2.69847 -3.28801,1.70029 -5.86133,1.26963 -10.05473,-1.68273 -1.4599,-1.02784 -2.9224,-1.8688 -3.25,-1.8688 -1.01951,0 -0.54273,7.32789 0.71081,10.92489 1.60576,4.60769 3.16154,4.85615 6.69855,1.06977 l 2.97304,-3.18265 1.01098,2.65909 c 0.55605,1.46251 1.01099,3.96292 1.01099,5.55649 0,1.59356 0.93233,5.38927 2.07185,8.4349 1.68985,4.51653 2.49696,5.53751 4.37755,5.53751 1.26814,0 2.86389,-0.67257 3.54611,-1.49459 z m -281.70225,-5.35268 c 3.05224,-2.25482 6.15672,-5.58122 7.13716,-7.64735 1.71979,-3.62418 1.71122,-3.69296 -0.96334,-7.73449 -1.48421,-2.24279 -2.9316,-5.81526 -3.21643,-7.93883 -0.42491,-3.16795 -0.98753,-3.9606 -3.13426,-4.41575 -1.43902,-0.3051 -3.61282,-0.95661 -4.83068,-1.44781 -2.62872,-1.06023 -2.8689,-0.74896 -4.33714,5.62093 -2.73159,11.85094 -4.5951,26.36424 -3.52585,27.45991 1.84776,1.89341 7.24465,0.25948 12.87054,-3.89661 z m -60.40068,-4.04444 c 2.98423,-8.76559 2.57558,-10.04053 -2.06066,-6.42897 -1.99153,1.55138 -4.41069,3.29119 -5.37591,3.86625 -1.62604,0.96877 -1.55057,1.35442 1.02741,5.25 1.53029,2.31244 3.07047,4.20443 3.42262,4.20443 0.35215,0 1.69609,-3.10127 2.98654,-6.89171 z M 358.5534,167.25 c 3.90813,-3.1183 4.11376,-3.85531 1.79161,-6.42126 -2.41767,-2.67149 -2.98599,-2.33065 -4.75101,2.8494 -2.51941,7.39406 -2.2454,7.72477 2.9594,3.57186 z m 182.96148,-4.69355 C 545.74961,159.32646 548,154.335 548,148.17218 l 0,-5.02557 -5.25609,-2.40631 c -2.89084,-1.32347 -6.71086,-3.8611 -8.48893,-5.63916 -1.77807,-1.77807 -3.68783,-2.95166 -4.24391,-2.60798 -1.47982,0.91458 -1.23391,10.31676 0.48336,18.48035 1.99502,9.48401 4.01558,13.28663 7.41118,13.94754 0.22308,0.0434 1.84726,-1.02065 3.60927,-2.3646 z m 138.17067,-0.73076 c 2.93964,-2.76165 2.90884,-3.91866 -0.18161,-6.82199 -2.84118,-2.66915 -2.80846,-2.68338 -4.35548,1.89552 -2.38781,7.06748 -0.23274,9.40749 4.53709,4.92647 z m -292.03854,-5.39264 c 4.14141,-3.39357 5.3382,-5.70612 3.53104,-6.82301 C 390.26256,149.04424 379,156.72247 379,157.91241 c 0,1.19372 1.20476,2.08759 2.81367,2.08759 0.81419,0 3.43919,-1.60513 5.83334,-3.56695 z m 89.80999,-1.38554 c 1.81377,-2.00419 1.85199,-2.58783 0.61181,-9.34262 -0.72756,-3.96269 -1.67729,-9.88286 -2.11051,-13.15593 -0.51052,-3.85697 -1.41279,-6.40812 -2.56413,-7.25 C 469.94982,122.78039 469,123.68784 469,129.49712 c 0,4.88291 -0.39297,5.93209 -3.51705,9.39007 -4.15253,4.59636 -3.92848,5.88782 2.54074,14.64487 4.36312,5.90615 5.32058,6.05997 9.43331,1.51545 z M 374.09851,151.75 c 16.81882,-12.14474 17.5442,-14.58297 7.26428,-24.4175 -4.46457,-4.27114 -7.00147,-6.04305 -7.75,-5.41302 -2.61603,2.20188 -10.14384,20.29567 -11.20512,26.93257 -0.6739,4.21431 0.79447,8.14795 3.0415,8.14795 0.75834,0 4.65055,-2.3625 8.64934,-5.25 z m 265.88679,1.61396 c 3.57675,-4.0737 2.95233,-5.32164 -2.67628,-5.34865 -3.85567,-0.0185 -4.16213,0.4321 -3.56021,5.23469 0.5925,4.72736 2.16071,4.75601 6.23649,0.11396 z m 46.6373,-7.33737 C 685.8655,136.94836 685.31498,135 683.50695,135 682.10089,135 679,140.8254 679,143.46687 679,146.66805 684.09401,154 686.31809,154 c 0.60049,0 0.71638,-3.03464 0.30451,-7.97341 z m 17.50452,2.93854 c 1.74036,-4.70398 1.46977,-9.79885 -0.56182,-10.57844 -0.64357,-0.24697 -3.32112,0.50245 -5.95011,1.66538 l -4.77997,2.11441 0.69672,5.16676 c 0.90367,6.70146 1.00909,6.83053 5.28563,6.47159 3.3025,-0.27719 3.78387,-0.71597 5.30955,-4.8397 z M 402.3655,147.75 c 0.77638,-1.2375 1.95385,-3.95931 2.6166,-6.04847 0.66275,-2.08916 5.70507,-12.65112 11.20517,-23.47101 l 10.00016,-19.672547 -2.64948,-2.278986 C 420.40016,93.57997 418.27794,93.416592 415.11687,95.630693 412.07316,97.762592 410,102.8712 410,108.23952 c 0,6.2111 -3.37763,17.4691 -6.11542,20.38334 -1.29276,1.37608 -3.77039,3.37952 -5.50586,4.4521 -2.54691,1.57407 -3.28845,2.8374 -3.84536,6.55114 -0.62103,4.14131 -0.41367,4.88939 2.07543,7.48745 3.32996,3.47574 3.93353,3.54247 5.75671,0.63645 z m 325.06183,-5.6697 c 1.65255,-1.82605 1.63928,-2.14128 -0.27196,-6.46196 -2.86027,-6.46612 -11.02258,-18.81844 -12.02548,-18.19861 -0.46442,0.28702 -1.1222,2.86754 -1.46175,5.73449 -0.86832,7.33159 1.51295,15.05461 5.64644,18.31276 3.82983,3.01878 5.80098,3.1678 8.11275,0.61332 z m -265.66983,-8.069 c 2.71053,-2.52525 3.7482,-13.86522 1.7142,-18.73328 C 462.66226,113.34077 462,109.11071 462,105.87788 462,102.64504 461.60661,100 461.12581,100 c -1.40171,0 -10.87574,22.1496 -11.63248,27.19588 -0.67036,4.47032 -0.58729,4.66817 2.97667,7.08994 3.92274,2.66557 6.20406,2.59814 9.2875,-0.27452 z m 235.68534,0.88992 C 699.39928,133.7469 701,132.57416 701,132.29514 c 0,-0.27901 -1.09286,-1.36694 -2.42857,-2.41762 -1.33572,-1.05067 -3.41205,-3.5016 -4.61407,-5.44652 -1.20202,-1.94491 -2.40069,-3.321 -2.66372,-3.05798 -0.79693,0.79693 0.87966,15.62698 1.76669,15.62698 0.45394,0 2.42607,-0.94445 4.38251,-2.09878 z M 565.08104,120.1849 c 1.63903,-4.12913 1.04228,-6.71761 -2.08104,-9.02678 -1.65,-1.2199 -3,-2.62523 -3,-3.12296 0,-0.49773 -0.48845,-2.17176 -1.08545,-3.72006 L 557.8291,101.5 555.46151,106 c -4.3863,8.33691 -6.75741,16.82453 -6.08026,21.76488 1.1242,8.20192 2.31824,8.35181 8.93557,1.12168 3.21489,-3.51261 6.25879,-7.42835 6.76422,-8.70166 z m 118.86027,10.38582 c 0.88935,-1.07161 0.91999,-2.86932 0.12244,-7.18366 C 683.47869,120.22215 683,115.71689 683,113.37536 c 0,-2.34153 -0.3375,-4.46511 -0.75,-4.71907 -0.4125,-0.25396 -0.78417,4.89448 -0.82593,11.44098 -0.0418,6.5465 0.24064,11.90273 0.62756,11.90273 0.38691,0 1.23727,-0.64318 1.88968,-1.42928 z m -285.65583,-4.95949 c 1.41764,-1.31383 3.08036,-4.35133 3.69492,-6.75 0.61457,-2.39868 1.54539,-5.66588 2.0685,-7.26045 0.5231,-1.59458 0.9511,-4.44007 0.9511,-6.32333 0,-4.75289 -2.43323,-4.05931 -6.61408,1.88529 -4.2622,6.06027 -6.81172,14.58713 -5.44016,18.1946 1.23774,3.2555 2.05881,3.29454 5.33972,0.25389 z M 626,123.71144 c 0,-0.70871 0.89826,-3.05044 1.99614,-5.20386 2.4043,-4.7159 1.61469,-5.83471 -2.79653,-3.9625 -3.12234,1.32518 -3.26362,1.60453 -2.61867,5.17784 0.37496,2.07739 0.87419,4.11458 1.10942,4.52708 0.69972,1.22707 2.30964,0.85168 2.30964,-0.53856 z M 697.74808,114.5 c -1.86445,-5.80548 -2.65171,-7.05711 -4.61342,-7.33466 -3.34602,-0.47343 -4.29597,0.93139 -3.40613,5.0371 0.53442,2.46577 2.14378,4.70272 5.23762,7.28007 2.45639,2.04632 4.59302,3.33738 4.74808,2.86903 0.15506,-0.46835 -0.72971,-4.00154 -1.96615,-7.85154 z m 12.78957,3.25 c 0.37354,-1.5125 0.41576,-2.75 0.0938,-2.75 -1.22244,0 -3.77232,4.96307 -3.10479,6.04316 0.91928,1.48742 2.16746,0.12227 3.01098,-3.29316 z m -324.11648,2 c 1.75524,-6.12178 4.17829,-11.11025 6.95914,-14.32722 l 3.31195,-3.83136 -2.47682,-4.773959 C 392.85319,94.191785 391.4328,92.232512 391.05902,92.463523 389.35601,93.516039 379,110.01234 379,111.67258 c 0,2.2039 4.63381,9.32742 6.06744,9.32742 0.54743,0 1.15661,-0.5625 1.35373,-1.25 z m 88.4669,-10 c -0.2,-14.741428 -1.33493,-27.074003 -2.52774,-27.467318 -0.62681,-0.206687 -2.17095,1.292868 -3.43142,3.332343 -2.02825,3.281778 -2.26276,4.795778 -2.03956,13.167597 0.1387,5.202708 0.70032,10.642488 1.24803,12.088418 1.07896,2.84839 4.70383,7.12896 6.03693,7.12896 0.45413,0 0.77532,-3.7125 0.71376,-8.25 z m 120.77647,-0.29 c 3.09321,-1.25753 3.17264,-1.4519 3.52374,-8.62327 0.19755,-4.0352 0.24794,-7.512302 0.11196,-7.726889 -0.33533,-0.529198 -11.01962,7.442489 -15.05024,11.229179 -1.7875,1.67932 -3.25,3.65454 -3.25,4.38937 0,3.22068 7.60841,3.60026 14.66454,0.73161 z m 109.94991,-3.92568 C 704.70114,104.14045 703.48394,103 702.90956,103 c -1.03546,0 -0.69007,1.81427 1.33262,7 l 0.97513,2.5 1.02884,-2.21568 c 0.78463,-1.68975 0.63469,-2.81724 -0.6317,-4.75 z m -13.23436,-1.82298 c 1.61561,-1.18137 1.64714,-1.74339 0.37869,-6.750001 C 691.99777,93.957603 690.99337,91.5 690.52678,91.5 c -1.11408,0 -3.35393,6.27463 -3.4507,9.66667 -0.0659,2.30987 0.84141,3.45189 2.98279,3.75438 0.30738,0.0434 1.35193,-0.50095 2.32122,-1.20971 z M 409.26538,92.557434 c 2.87904,-1.893411 6.45366,-3.737561 7.9436,-4.098113 3.62119,-0.876294 4.43892,-2.111731 5.02398,-7.590324 0.272,-2.547051 1.74281,-7.096249 3.26847,-10.109329 2.16918,-4.28398 2.62918,-6.249924 2.10997,-9.01755 C 426.87559,57.819916 423.55348,53 421.58593,53 c -2.41141,0 -19.77546,19.756149 -23.40041,26.624088 -1.45437,2.755475 -0.40654,12.313389 1.60342,14.625912 2.14338,2.466025 3.52953,2.218449 9.47644,-1.692566 z m 26.12483,-7.337172 c 9.92756,-17.149653 12.79111,-23.213452 11.24283,-23.807584 -2.07659,-0.796862 -10.21892,4.165135 -13.05402,7.955219 -5.29676,7.080926 -7.85359,16.382035 -5.64023,20.517733 1.82295,3.406219 3.32242,2.467395 7.45142,-4.665368 z m 250.16868,2.235569 c 0.71642,-4.777394 0.19495,-15.035326 -0.81571,-16.045981 -0.91092,-0.910928 -3.92964,0.334806 -7.23167,2.984295 -2.92731,2.348831 -2.96031,2.476791 -1.61207,6.251882 1.70479,4.773434 6.19343,11.303958 7.78929,11.332622 0.6538,0.01174 1.49537,-2.023525 1.87016,-4.522818 z M 469.41016,78.85464 C 468.06814,76.683198 461,78.877549 461,81.465633 c 0,2.212739 4.27414,2.333235 6.71918,0.189425 1.22055,-1.070178 1.98149,-2.330366 1.69098,-2.800418 z m -5.2175,-6.035796 c 2.18854,-0.754075 3.91412,-2.096464 4.23635,-3.295588 0.90669,-3.374164 0.63604,-10.533193 -0.47683,-12.612607 -0.79563,-1.486649 -0.67529,-2.330397 0.5,-3.505687 0.8513,-0.851301 1.55731,-2.303176 1.56891,-3.226391 0.0116,-0.923214 1.11842,-4.788456 2.4596,-8.589427 1.34119,-3.800971 2.22081,-7.263116 1.95472,-7.693655 -0.64264,-1.039816 -10.22045,4.959518 -12.02041,7.529335 -2.01999,2.883928 -1.75118,6.29432 0.77585,9.843198 l 2.19085,3.076763 -5.05104,4.577608 c -4.35836,3.949851 -4.94675,4.920448 -4.29053,7.077607 0.41828,1.375 0.80537,4.014984 0.86019,5.866631 0.1078,3.640876 -0.34087,3.58229 7.29234,0.952213 z m 213.22865,-5.1661 c 2.73628,-2.314944 3.72769,-3.822073 3.28061,-4.987148 -0.86036,-2.242051 -12.85089,-9.916629 -13.88218,-8.885335 -0.80248,0.802475 1.26212,10.568284 3.16476,14.969739 1.31382,3.039303 2.80794,2.818854 7.43681,-1.097256 z M 473.57524,64.241911 c -1.17829,-1.178296 -1.64707,0.61512 -0.88612,3.39009 l 0.78646,2.867999 0.33745,-2.841422 c 0.1856,-1.562783 0.0786,-3.100283 -0.23779,-3.416667 z m -33.17832,-7.381429 c 5.9323,-3.929394 7.18011,-5.874954 8.52638,-13.294141 C 450.25064,36.251432 450.26468,35 449.01942,35 447.37871,35 424,49.978359 424,51.029532 c 0,0.357191 1.10336,1.15216 2.4519,1.766599 1.34855,0.614438 3.1601,2.48667 4.02568,4.160515 1.99158,3.851295 3.989,3.831931 9.91934,-0.09616 z m 17.17305,-1.167006 c 2.66667,-2.293773 2.6719,-2.325076 0.94612,-5.662365 -1.43339,-2.77187 -1.54378,-3.99532 -0.63437,-7.030673 1.34842,-4.500612 2.65795,-5.71723 12.69548,-11.794728 8.62785,-5.223964 10.64441,-8.431305 6.02931,-9.589621 -3.03307,-0.761252 -12.49039,2.590042 -16.37211,5.801612 -1.50392,1.244282 -3.6344,2.750643 -4.7344,3.34747 -1.66393,0.902797 -2.19613,2.820097 -3.1672,11.409985 -0.64196,5.678664 -1.48192,11.562344 -1.86657,13.074844 -0.6272,2.466154 -0.43507,2.75 1.86143,2.75 1.40845,0 3.76748,-1.037936 5.24231,-2.306524 z M 657.99778,47.496409 C 655.59934,43.615644 637.12051,26 635.44803,26 634.85848,26 633.42985,24.7201 632.27329,23.155777 629.9577,20.023778 618.77299,13.863772 606.72397,9.0844268 598.78012,5.9334334 595,5.2492421 595,6.9624201 c 0,0.9326666 10.88521,6.4121229 18,9.0609379 5.20194,1.936666 21,10.158035 21,10.928478 0,1.060122 8.48509,10.806199 17.35305,19.931926 6.91156,7.112463 8.19572,8.057771 8.4686,6.233969 0.17691,-1.182386 -0.64383,-3.711981 -1.82387,-5.621322 z"
     id="path3014"
     inkscape:connector-curvature="0" />
</svg>
